<svg xmlns="http://www.w3.org/2000/svg" viewBox="0 0 850 950" role="img" aria-label="Ilustração de um lutador de Muay Thai a executar um pontapé circular">
  <defs>
    <linearGradient id="bg-grad-kick" x1="0" y1="0" x2="850" y2="950" gradientUnits="userSpaceOnUse">
      <stop offset="0" stop-color="#08090a" />
      <stop offset="0.6" stop-color="#1c1e21" />
      <stop offset="1" stop-color="#08090a" />
    </linearGradient>
    <pattern id="bg-grid-kick" width="40" height="40" patternUnits="userSpaceOnUse">
      <path d="M 40 0 L 0 0 0 40" fill="none" stroke="#2a2c30" stroke-width="1" opacity="0.5" />
    </pattern>
  </defs>
  <rect width="850" height="950" fill="url(#bg-grad-kick)" />
  <rect width="850" height="950" fill="url(#bg-grid-kick)" />
  <g stroke="#ff7a33" stroke-width="6" stroke-linecap="round" opacity="0.5" fill="none">
    <path d="M 600 370 Q 690 395 765 430" />
    <path d="M 612 425 Q 700 448 775 485" />
    <path d="M 618 478 Q 705 500 780 535" />
  </g>
  <g><g transform="translate(356,556) rotate(101.31)"><rect x="0" y="-38" width="152.97058540778355" height="76" rx="38" fill="#e63a1f" /></g><circle cx="326" cy="706" r="37" fill="#e63a1f" /><g transform="translate(326,706) rotate(85.30)"><rect x="0" y="-27" width="146.4923206178399" height="54" rx="27" fill="#e63a1f" /></g><circle cx="338" cy="852" r="24" fill="#e63a1f" /><ellipse cx="312" cy="882" rx="46" ry="20" fill="#e63a1f" transform="rotate(-8 312 882)" /><circle cx="356" cy="556" r="60" fill="#e63a1f" /><g transform="translate(356,556) rotate(-82.06)"><rect x="0" y="-53" width="86.83317338436964" height="106" rx="53" fill="#e63a1f" /></g><g transform="translate(368,470) rotate(-99.83)"><rect x="0" y="-63" width="152.23665787188054" height="126" rx="63" fill="#e63a1f" /></g><circle cx="342" cy="320" r="68" fill="#e63a1f" /><circle cx="368" cy="470" r="56" fill="#e63a1f" /><circle cx="288" cy="196" r="57" fill="#e63a1f" /><circle cx="378" cy="552" r="55" fill="#e63a1f" /><g transform="translate(378,552) rotate(-23.57)"><rect x="0" y="-35" width="205.10485123467947" height="70" rx="35" fill="#e63a1f" /></g><circle cx="566" cy="470" r="36" fill="#e63a1f" /><g transform="translate(566,470) rotate(13.42)"><rect x="0" y="-22" width="180.94197965093676" height="44" rx="22" fill="#e63a1f" /></g><circle cx="742" cy="512" r="23" fill="#e63a1f" /><g transform="translate(742,512) rotate(15.07)"><rect x="0" y="-11" width="53.85164807134504" height="22" rx="11" fill="#e63a1f" /></g><ellipse cx="794" cy="526" rx="20" ry="12" fill="#e63a1f" transform="rotate(8 794 526)" /><ellipse cx="742" cy="512" rx="20" ry="14" fill="#ff7a33" transform="rotate(-12 742 512)" /><circle cx="312" cy="300" r="34" fill="#e63a1f" /><g transform="translate(312,300) rotate(131.42)"><rect x="0" y="-20" width="90.68627239003706" height="40" rx="20" fill="#e63a1f" /></g><circle cx="252" cy="368" r="21" fill="#e63a1f" /><g transform="translate(252,368) rotate(-91.17)"><rect x="0" y="-17" width="98.02040603874276" height="34" rx="17" fill="#e63a1f" /></g><circle cx="250" cy="270" r="26" fill="#ff7a33" /></g>
</svg>