<svg width="44" height="48" viewBox="0 0 44 48" fill="none" xmlns="http://www.w3.org/2000/svg">
<path d="M11.4297 35.8048C11.4297 36.3187 11.2256 36.8115 10.8622 37.1748C10.4989 37.5382 10.006 37.7423 9.49219 37.7423C8.97833 37.7423 8.48552 37.5382 8.12217 37.1748C7.75882 36.8115 7.55469 36.3187 7.55469 35.8048C7.55469 35.2909 7.75882 34.7981 8.12217 34.4348C8.48552 34.0714 8.97833 33.8673 9.49219 33.8673C10.006 33.8673 10.4989 34.0714 10.8622 34.4348C11.2256 34.7981 11.4297 35.2909 11.4297 35.8048ZM13.9609 42.4298C14.4748 42.4298 14.9676 42.2257 15.331 41.8623C15.6943 41.499 15.8984 41.0062 15.8984 40.4923C15.8984 39.9784 15.6943 39.4856 15.331 39.1223C14.9676 38.7589 14.4748 38.5548 13.9609 38.5548C13.4471 38.5548 12.9543 38.7589 12.5909 39.1223C12.2276 39.4856 12.0234 39.9784 12.0234 40.4923C12.0234 41.0062 12.2276 41.499 12.5909 41.8623C12.9543 42.2257 13.4471 42.4298 13.9609 42.4298ZM9.86719 41.8829C9.86719 42.3968 9.66306 42.8896 9.29971 43.2529C8.93635 43.6163 8.44354 43.8204 7.92969 43.8204C7.41583 43.8204 6.92302 43.6163 6.55967 43.2529C6.19632 42.8896 5.99219 42.3968 5.99219 41.8829C5.99219 41.3691 6.19632 40.8763 6.55967 40.5129C6.92302 40.1496 7.41583 39.9454 7.92969 39.9454C8.44354 39.9454 8.93635 40.1496 9.29971 40.5129C9.66306 40.8763 9.86719 41.3691 9.86719 41.8829ZM18.9609 13.3751C17.9141 13.3751 17.0391 14.0939 16.8047 15.0626C16.7422 15.3282 16.9453 15.6095 17.2266 15.6095H17.9141C17.8573 15.3983 17.8498 15.1769 17.8923 14.9623C17.9347 14.7478 18.0259 14.5459 18.1588 14.3722C18.2917 14.1986 18.4627 14.0578 18.6587 13.9607C18.8547 13.8637 19.0704 13.813 19.2891 13.8126C19.4764 13.8105 19.6622 13.8459 19.8357 13.9166C20.0091 13.9873 20.1667 14.092 20.2991 14.2244C20.4316 14.3569 20.5363 14.5144 20.607 14.6879C20.6777 14.8613 20.713 15.0472 20.7109 15.2345C20.7109 15.3595 20.6953 15.4845 20.6641 15.6095H20.7891C21.0234 15.6095 21.1953 15.4064 21.1484 15.172C21.053 14.6632 20.7815 14.2043 20.3815 13.8757C19.9815 13.5471 19.4786 13.3699 18.9609 13.3751ZM26.6016 13.3751C27.6484 13.3751 28.5234 14.0939 28.7578 15.0626C28.8203 15.3439 28.6172 15.6095 28.3359 15.6095H27.6484C27.7052 15.3983 27.7127 15.1769 27.6702 14.9623C27.6278 14.7478 27.5366 14.5459 27.4037 14.3722C27.2708 14.1986 27.0998 14.0578 26.9038 13.9607C26.7078 13.8637 26.4921 13.813 26.2734 13.8126C26.0548 13.813 25.8391 13.8637 25.6431 13.9607C25.4471 14.0578 25.2761 14.1986 25.1432 14.3722C25.0103 14.5459 24.9191 14.7478 24.8767 14.9623C24.8342 15.1769 24.8417 15.3983 24.8984 15.6095H24.7734C24.7189 15.6108 24.6648 15.5997 24.6151 15.5769C24.5655 15.5542 24.5218 15.5205 24.4871 15.4783C24.4525 15.4362 24.4279 15.3867 24.4152 15.3336C24.4026 15.2805 24.4022 15.2252 24.4141 15.172C24.6172 14.1407 25.5234 13.3751 26.6016 13.3751Z" fill="black"/>
<path d="M19.3059 14.4066C19.446 14.4052 19.5841 14.4403 19.7065 14.5084C19.8289 14.5766 19.9315 14.6755 20.004 14.7954C20.0766 14.9152 20.1166 15.0519 20.1203 15.192C20.1239 15.3321 20.0909 15.4707 20.0247 15.5941H18.5872C18.523 15.4719 18.491 15.3354 18.494 15.1974C18.497 15.0594 18.535 14.9244 18.6044 14.8051C18.6254 14.8318 18.6518 14.8539 18.6817 14.8701C18.7117 14.8863 18.7446 14.8962 18.7785 14.8992C18.8124 14.9022 18.8465 14.8982 18.8789 14.8876C18.9112 14.8769 18.941 14.8598 18.9665 14.8372C18.9919 14.8146 19.0125 14.787 19.0269 14.7562C19.0414 14.7254 19.0494 14.692 19.0504 14.6579C19.0515 14.6239 19.0456 14.59 19.0331 14.5584C19.0206 14.5267 19.0018 14.498 18.9778 14.4738C19.0814 14.4291 19.1931 14.4062 19.3059 14.4066ZM26.2747 14.4066C26.1771 14.4067 26.0802 14.4242 25.9887 14.4582C26.0191 14.4815 26.0436 14.5115 26.0605 14.5458C26.0774 14.5802 26.0862 14.6179 26.0863 14.6562C26.0863 14.6944 26.0775 14.7322 26.0606 14.7665C26.0438 14.8009 26.0192 14.8309 25.989 14.8543C25.9587 14.8776 25.9234 14.8937 25.8859 14.9013C25.8484 14.9089 25.8097 14.9078 25.7727 14.8981C25.7357 14.8884 25.7014 14.8703 25.6725 14.8452C25.6436 14.8201 25.6208 14.7888 25.6059 14.7535C25.5216 14.8757 25.4723 15.0186 25.4635 15.1668C25.4547 15.315 25.4867 15.4628 25.5559 15.5941H26.9934C27.0597 15.4707 27.0926 15.3321 27.089 15.192C27.0854 15.0519 27.0453 14.9152 26.9728 14.7954C26.9002 14.6755 26.7977 14.5766 26.6753 14.5084C26.5528 14.4403 26.4148 14.4052 26.2747 14.4066ZM22.2903 15.1098L21.4622 17.7816C21.2903 18.3285 21.6965 18.891 22.2747 18.891H23.4934C24.0715 18.891 24.4778 18.3285 24.3059 17.7816L23.4778 15.1098C23.3059 14.516 22.4778 14.516 22.2903 15.1098ZM20.4778 19.8129C21.1497 20.1723 21.9465 20.3754 22.7903 20.3754C23.634 20.3754 24.4309 20.1723 25.1028 19.8129C25.3215 19.7035 25.5715 19.9535 25.4309 20.1723C24.8684 21.0316 23.8997 21.6098 22.7903 21.6098C21.6809 21.6098 20.7122 21.0316 20.1497 20.1723C20.009 19.9535 20.2434 19.6879 20.4778 19.8129ZM17.0247 11.5223C16.9357 11.6012 16.8802 11.7111 16.8692 11.8295C16.8582 11.9479 16.8927 12.0661 16.9656 12.1601C17.0385 12.2541 17.1444 12.3168 17.2619 12.3356C17.3793 12.3544 17.4995 12.3278 17.5981 12.2613L17.6012 12.2582L17.6106 12.2519L17.6262 12.2394C17.6512 12.2238 17.6903 12.1973 17.7434 12.166C18.399 11.7849 19.1606 11.6269 19.9137 11.716C20.0334 11.7235 20.1514 11.6848 20.2434 11.608C20.3354 11.5312 20.3945 11.422 20.4085 11.3029C20.4225 11.1839 20.3904 11.064 20.3187 10.9679C20.247 10.8718 20.1412 10.8068 20.0231 10.7863C19.0644 10.6734 18.095 10.8764 17.2622 11.3644C17.2053 11.3985 17.1495 11.4345 17.095 11.4723L17.0247 11.5223ZM28.634 12.1785C28.71 12.0806 28.7441 11.9566 28.7289 11.8336C28.7136 11.7106 28.6503 11.5987 28.5528 11.5223L28.5497 11.5191L28.545 11.516L28.5294 11.5051C28.4612 11.4535 28.3897 11.4066 28.3153 11.3644C27.4824 10.8764 26.5131 10.6734 25.5544 10.7863C25.4387 10.8094 25.3361 10.8751 25.2668 10.9705C25.1975 11.0658 25.1666 11.1838 25.1804 11.3009C25.1942 11.418 25.2516 11.5255 25.3412 11.6022C25.4308 11.6788 25.5459 11.7189 25.6637 11.7144C26.4175 11.6255 27.1798 11.784 27.8356 12.166C27.8837 12.1949 27.9306 12.2256 27.9762 12.2582L27.9794 12.2613C28.0775 12.3371 28.2016 12.3709 28.3246 12.3554C28.4476 12.3399 28.5594 12.2763 28.6356 12.1785H28.634Z" fill="black"/>
<path d="M11.6419 4.64533C16.0478 1.96998 21.1045 0.557569 26.2591 0.562513C27.3406 0.562102 28.4115 0.77481 29.4108 1.18848C30.41 1.60215 31.3179 2.20868 32.0826 2.97339C32.8473 3.7381 33.4538 4.64602 33.8675 5.64524C34.2812 6.64447 34.4939 7.71542 34.4935 8.79689C34.4935 9.57032 34.1669 10.2641 33.6497 10.7547V12.9109C34.2809 13.6835 34.6139 14.657 34.5881 15.6542C34.5623 16.6515 34.1794 17.6064 33.5091 18.3453V19.1406C33.5095 20.1279 33.2157 21.0929 32.6654 21.9125C32.4419 22.6313 32.1138 23.3031 31.7029 23.9156C32.4497 24.3203 33.1654 24.775 33.8466 25.2735C33.648 25.9648 33.6447 26.6977 33.8372 27.3908C34.0297 28.0839 34.4105 28.7101 34.9372 29.2C34.8388 29.5594 34.7513 29.9188 34.6716 30.2781C33.3156 28.6857 31.6549 27.3805 29.7872 26.4391C29.6953 27.4131 29.2812 28.3286 28.6105 29.0409C27.9399 29.7532 27.0508 30.2216 26.0841 30.3719C26.5763 31.0469 26.8685 31.8797 26.8685 32.7813V35.3906C25.7842 35.3894 24.7446 34.9586 23.9773 34.1924C23.2101 33.4263 22.7776 32.3874 22.7747 31.3031C22.7718 32.3874 22.3394 33.4263 21.5721 34.1924C20.8048 34.9586 19.7652 35.3894 18.681 35.3906V32.7813C18.681 31.8797 18.9732 31.0469 19.4669 30.3719C18.4999 30.2219 17.6105 29.7537 16.9395 29.0414C16.2685 28.329 15.8543 27.4133 15.7622 26.4391C13.5719 27.543 11.6706 29.1446 10.2107 31.1156C11.6636 31.3308 13.0315 31.9342 14.17 32.862C15.3085 33.7899 16.1755 35.0079 16.6794 36.3875L19.57 44.3125H33.0638C33.1051 44.0968 33.1816 43.8893 33.2904 43.6984C33.1184 43.4036 33.0275 43.0684 33.0269 42.727C33.0264 42.3856 33.1162 42.0502 33.2872 41.7547C33.1162 41.4593 33.0264 41.1238 33.0269 40.7824C33.0275 40.441 33.1184 40.1058 33.2904 39.8109C33.1054 39.4973 33.0138 39.1374 33.0263 38.7734C33.0544 37.7531 33.8622 36.9813 34.8122 36.8844C34.877 36.8676 34.9437 36.8592 35.0107 36.8594H35.8232C35.5866 34.1659 35.8623 31.4519 36.6357 28.861C36.01 28.4308 35.5627 27.7871 35.3778 27.0507C35.1928 26.3143 35.2828 25.5357 35.631 24.861C36.6169 22.7938 38.5013 21.7422 40.6544 21.6016H40.706C40.9888 21.6016 41.2825 21.6906 41.5419 21.9141L41.5575 21.9266C41.7586 22.1088 41.8939 22.3523 41.9425 22.6192C41.9911 22.8862 41.9502 23.1618 41.8263 23.4031L41.8185 23.4203L41.8091 23.436C41.4154 24.136 41.2919 24.8031 41.47 25.6594L41.4872 25.7375V25.7578C41.589 26.3407 41.5229 26.9405 41.2966 27.4872C41.0703 28.0339 40.6931 28.5049 40.2091 28.8453C40.68 30.4366 40.9678 32.0763 41.0669 33.7328C41.6605 33.9577 42.1718 34.3577 42.5329 34.8798C42.894 35.4019 43.0878 36.0215 43.0888 36.6563V44.4844C43.0886 45.2381 42.7972 45.9626 42.2754 46.5065C41.7537 47.0505 41.0419 47.3717 40.2888 47.4031C40.182 47.4259 40.073 47.4374 39.9638 47.4375H3.66535C3.34027 47.4374 3.02331 47.3359 2.75864 47.1471C2.49397 46.9583 2.29477 46.6917 2.18879 46.3844L0.657542 41.9469L0.65598 41.9453C-1.20965 36.5 2.07161 30.6188 7.43723 29.6172C9.14275 27.1971 11.3948 25.2133 14.0107 23.8266C13.7167 23.3775 13.4706 22.8988 13.2763 22.3985C12.4794 21.4942 12.0399 20.3303 12.0404 19.125V18.2297C11.4085 17.4787 11.0626 16.5284 11.0638 15.5469C11.0638 14.525 11.4325 13.5891 12.0404 12.8656V11.3547C11.3037 11.1366 10.6574 10.6859 10.1983 10.0699C9.73921 9.45389 9.49193 8.70578 9.49348 7.93751C9.49348 6.69064 10.1372 5.53439 11.2294 4.89064L11.231 4.88908L11.6419 4.64533ZM17.906 44.3125L15.2122 36.925C14.7232 35.585 13.8126 34.4398 12.6171 33.6616C11.4216 32.8834 10.0058 32.5142 8.58254 32.6094C8.55401 32.6139 8.52535 32.6175 8.49661 32.6203C4.87629 32.9734 2.25598 36.9688 3.61223 40.9313L4.77942 44.3125H17.9044H17.906ZM39.9622 38.4219H35.1654C35.1139 38.4323 35.0616 38.4375 35.0091 38.4375C34.7638 38.4375 34.5919 38.6281 34.5872 38.8156V38.825C34.5861 38.8922 34.6023 38.9586 34.6343 39.0178C34.6664 39.0769 34.7131 39.1268 34.77 39.1625C34.8777 39.2342 34.9659 39.3315 35.0266 39.4456C35.0874 39.5598 35.1189 39.6872 35.1183 39.8165C35.1177 39.9459 35.085 40.073 35.0231 40.1866C34.9612 40.3001 34.8721 40.3966 34.7638 40.4672C34.7108 40.501 34.667 40.5474 34.6363 40.6022C34.6055 40.6569 34.5886 40.7184 34.5872 40.7813C34.5872 40.9219 34.6544 41.0266 34.7482 41.0859C34.86 41.1552 34.9526 41.2515 35.0173 41.366C35.082 41.4805 35.1167 41.6095 35.1183 41.741C35.1198 41.8726 35.0882 42.0023 35.0262 42.1183C34.9642 42.2344 34.874 42.3329 34.7638 42.4047C34.7108 42.4385 34.667 42.4849 34.6363 42.5397C34.6055 42.5944 34.5886 42.6559 34.5872 42.7188C34.5872 42.8594 34.6544 42.9641 34.7482 43.0234C34.8563 43.0904 34.9464 43.1827 35.0108 43.2923C35.0751 43.402 35.1117 43.5257 35.1174 43.6527C35.1231 43.7797 35.0977 43.9062 35.0435 44.0212C34.9892 44.1362 34.9077 44.2362 34.806 44.3125H39.6497C39.7497 44.2922 39.8544 44.2813 39.9622 44.2813V38.4219ZM39.4685 33.3188C39.3339 31.7509 39.0193 30.2037 38.531 28.7078L38.4232 28.3766L38.3122 28.7203C37.8232 30.212 37.5076 31.7549 37.3716 33.3188H39.4685ZM20.0716 26.2188C20.3245 26.7555 20.7245 27.2094 21.2251 27.5277C21.7257 27.8461 22.3064 28.0158 22.8997 28.0172C24.1482 28.0172 25.231 27.2766 25.731 26.2125C25.2822 26.3011 24.8259 26.3456 24.3685 26.3453H21.3997C20.954 26.3457 20.5092 26.3033 20.0716 26.2188ZM15.4232 10.7188C15.4279 10.8375 15.4341 10.9563 15.4435 11.0781L15.445 11.0891L16.0372 20.1078C16.2192 21.4017 16.8616 22.5865 17.8466 23.4449C18.8316 24.3034 20.0932 24.7778 21.3997 24.7813H24.3685C25.6755 24.7805 26.9383 24.3072 27.9238 23.4486C28.9093 22.59 29.5512 21.404 29.731 20.1094L30.2935 11.075V11.0563C30.3075 10.9438 30.3169 10.8313 30.3232 10.7188H15.4232ZM37.0357 25.5438L37.0294 25.5594L37.0216 25.5719C36.9204 25.7668 36.8615 25.981 36.8488 26.2003C36.836 26.4196 36.8698 26.6391 36.9479 26.8445C37.0259 27.0498 37.1464 27.2364 37.3016 27.3919C37.4567 27.5474 37.643 27.6684 37.8482 27.7469L38.4185 27.9656L38.9857 27.7406C39.2593 27.6316 39.4966 27.4474 39.67 27.2094C39.5697 27.2325 39.4668 27.243 39.3638 27.2406C38.6763 27.2406 38.145 26.6469 38.145 25.9594C38.145 25.4906 37.77 25.1156 37.3013 25.1156H37.2669C37.1821 25.254 37.1049 25.3969 37.0357 25.5438Z" fill="black"/>
</svg>
