<svg width="50" height="50" viewBox="0 0 50 50" fill="none" xmlns="http://www.w3.org/2000/svg">
<path d="M42.4375 3.125L35.8594 4.875L12.8906 10.9531L10.5781 11.5781L8.57812 12.1094L6.25 12.7188L7.79687 18.5469L12.1094 17.4063L25.7125 13.7922L25.7187 13.7969L34.625 11.4375L34.6156 11.4297L41.6562 9.5625L43.9844 8.95312L42.4375 3.125ZM14.3922 12.1719L21.4312 10.3094L24.2141 12.5734L17.1875 14.4375L14.3922 12.1719ZM30.3313 7.95312L35.8188 6.50313L36.2594 6.38594H36.2609L37.3641 6.09219L40.1516 8.34531L33.1141 10.2125L30.3328 7.95469L30.3313 7.95312ZM45.3125 43.75V20.3125H7.8125V43.75C7.8125 44.5788 8.14174 45.3737 8.72779 45.9597C9.31384 46.5458 10.1087 46.875 10.9375 46.875H42.1875C43.0163 46.875 43.8112 46.5458 44.3972 45.9597C44.9833 45.3737 45.3125 44.5788 45.3125 43.75ZM41.4453 21.875L38.3281 26.1562H31.0625L34.1797 21.875H41.4453ZM17.6953 21.875H24.9766L21.8594 26.1562H14.5781L17.6953 21.875Z" fill="black"/>
</svg>
