<svg width="50" height="50" viewBox="0 0 50 50" fill="none" xmlns="http://www.w3.org/2000/svg">
<path d="M24.2503 9.42188V5.67188C24.2503 5.28125 24.5628 4.95312 24.9691 4.95312C25.3597 4.95312 25.6878 5.26563 25.6878 5.67188V9.42188H24.2503ZM20.9222 9.42188H19.5003L18.2503 5.85937C18.0941 5.42187 18.4222 4.96875 18.8909 4.96875C19.1722 4.96875 19.4378 5.15625 19.5316 5.42187L20.9222 9.42188ZM29.0003 9.42188H30.4222L31.6722 5.85937C31.8284 5.42187 31.5003 4.96875 31.0316 4.96875C30.7503 4.96875 30.4847 5.15625 30.3909 5.42187L29.0003 9.42188ZM19.5222 13.7C19.433 13.7001 19.346 13.6724 19.2733 13.6207C19.2006 13.5689 19.1459 13.4958 19.1168 13.4115C19.0877 13.3271 19.0857 13.2358 19.111 13.1503C19.1364 13.0647 19.1878 12.9893 19.2581 12.9344C20.1226 12.3306 21.1813 12.0715 22.2269 12.2078C22.2962 12.2162 22.3624 12.2412 22.4198 12.2809C22.4772 12.3206 22.5241 12.3736 22.5564 12.4355C22.5887 12.4973 22.6054 12.5661 22.6052 12.6359C22.605 12.7056 22.5877 12.7743 22.555 12.8359C22.5147 12.9103 22.4528 12.9707 22.3775 13.0092C22.3022 13.0476 22.217 13.0624 22.1331 13.0516C21.3108 12.9516 20.4797 13.1483 19.7894 13.6062C19.7139 13.6665 19.6203 13.6995 19.5238 13.7H19.5222ZM30.4378 13.7C30.3435 13.7006 30.2518 13.6698 30.1769 13.6125C29.4855 13.157 28.6553 12.9606 27.8331 13.0578C27.7764 13.0662 27.7187 13.0632 27.6632 13.0488C27.6077 13.0345 27.5556 13.0091 27.5101 12.9743C27.4646 12.9395 27.4266 12.8959 27.3982 12.8461C27.3699 12.7962 27.3518 12.7413 27.3451 12.6843C27.3384 12.6274 27.3432 12.5697 27.3593 12.5147C27.3753 12.4597 27.4022 12.4084 27.4383 12.364C27.4745 12.3196 27.5193 12.2828 27.5699 12.256C27.6205 12.2292 27.676 12.2128 27.7331 12.2078C28.7784 12.0763 29.8355 12.335 30.7019 12.9344C30.7723 12.9893 30.8238 13.065 30.8491 13.1507C30.8744 13.2363 30.8722 13.3278 30.843 13.4122C30.8137 13.4966 30.7587 13.5697 30.6858 13.6214C30.6129 13.673 30.5256 13.7005 30.4363 13.7H30.4378ZM21.1722 14.3594C20.1253 14.3594 19.2503 15.0781 19.0159 16.0469C18.9378 16.3125 19.1566 16.5781 19.4378 16.5781H20.1253C20.0686 16.3669 20.0611 16.1455 20.1035 15.931C20.146 15.7165 20.2372 15.5146 20.3701 15.3409C20.503 15.1672 20.674 15.0264 20.87 14.9294C21.066 14.8323 21.2816 14.7817 21.5003 14.7812C21.719 14.7817 21.9347 14.8323 22.1307 14.9294C22.3266 15.0264 22.4977 15.1672 22.6306 15.3409C22.7635 15.5146 22.8547 15.7165 22.8971 15.931C22.9395 16.1455 22.9321 16.3669 22.8753 16.5781H22.9847C23.2191 16.5781 23.3909 16.375 23.3441 16.1406C23.1566 15.125 22.2503 14.3594 21.1722 14.3594ZM28.7816 14.3594C29.8284 14.3594 30.7034 15.0781 30.9378 16.0469C31.0003 16.3281 30.7972 16.5938 30.5159 16.5938H29.8284C29.8852 16.3826 29.8927 16.1611 29.8502 15.9466C29.8078 15.7321 29.7166 15.5302 29.5837 15.3565C29.4508 15.1828 29.2798 15.042 29.0838 14.945C28.8878 14.848 28.6721 14.7973 28.4534 14.7969C28.2348 14.7973 28.0191 14.848 27.8231 14.945C27.6271 15.042 27.4561 15.1828 27.3232 15.3565C27.1903 15.5302 27.0991 15.7321 27.0567 15.9466C27.0142 16.1611 27.0217 16.3826 27.0784 16.5938H26.9691C26.9145 16.5951 26.8604 16.5839 26.8108 16.5612C26.7612 16.5385 26.7174 16.5048 26.6828 16.4626C26.6481 16.4204 26.6235 16.3709 26.6109 16.3178C26.5982 16.2648 26.5978 16.2095 26.6097 16.1562C26.8128 15.125 27.7034 14.3594 28.7816 14.3594Z" fill="black"/>
<path d="M21.4995 15.3907C21.6396 15.3892 21.7776 15.4243 21.9001 15.4925C22.0225 15.5606 22.125 15.6595 22.1976 15.7794C22.2701 15.8993 22.3102 16.036 22.3138 16.176C22.3174 16.3161 22.2845 16.4547 22.2182 16.5782H20.7807C20.7155 16.4537 20.6835 16.3145 20.6879 16.1741C20.6923 16.0337 20.7329 15.8967 20.8057 15.7766C20.8251 15.8066 20.8507 15.8322 20.8808 15.8515C20.9109 15.8708 20.9448 15.8834 20.9801 15.8885C21.0155 15.8936 21.0516 15.891 21.0859 15.881C21.1202 15.8709 21.152 15.8537 21.179 15.8303C21.2061 15.807 21.2279 15.7781 21.2428 15.7456C21.2578 15.7132 21.2656 15.6779 21.2658 15.6421C21.2659 15.6064 21.2584 15.571 21.2437 15.5384C21.2291 15.5058 21.2076 15.4768 21.1807 15.4532C21.2817 15.4113 21.3901 15.3901 21.4995 15.3907ZM28.4526 15.3907C28.3551 15.3903 28.2583 15.4072 28.1667 15.4407C28.1967 15.4641 28.2211 15.494 28.2378 15.5282C28.2545 15.5625 28.2632 15.6001 28.2632 15.6382C28.2631 15.6763 28.2544 15.7139 28.2376 15.7481C28.2209 15.7823 28.1965 15.8122 28.1664 15.8356C28.1363 15.8589 28.1012 15.8751 28.0639 15.8828C28.0266 15.8905 27.988 15.8896 27.9511 15.8802C27.9142 15.8707 27.8799 15.853 27.851 15.8282C27.822 15.8035 27.799 15.7725 27.7838 15.7375C27.6895 15.8744 27.6393 16.0369 27.6401 16.2032C27.6401 16.3438 27.687 16.4688 27.7338 16.5782H29.1713C29.2376 16.4547 29.2706 16.3161 29.2669 16.176C29.2633 16.036 29.2232 15.8993 29.1507 15.7794C29.0781 15.6595 28.9756 15.5606 28.8532 15.4925C28.7308 15.4243 28.5927 15.3892 28.4526 15.3907ZM24.9838 21.3438C24.1401 21.3438 23.3432 21.1407 22.6713 20.7969C22.437 20.6719 22.2026 20.9375 22.3432 21.1563C22.9057 22.0157 23.8745 22.5938 24.9838 22.5938C26.0932 22.5938 27.062 22.0157 27.6245 21.1563C27.7651 20.9375 27.5151 20.6875 27.2963 20.7969C26.6088 21.1407 25.8276 21.3438 24.9838 21.3438ZM23.6557 18.75L24.4838 16.0782C24.6713 15.5 25.4995 15.5 25.6713 16.0782L26.4995 18.75C26.6713 19.2969 26.2651 19.8438 25.687 19.8438H24.4682C23.8901 19.8438 23.4838 19.2969 23.6557 18.75Z" fill="black"/>
<path fill-rule="evenodd" clip-rule="evenodd" d="M16.5156 1.5625C12.4797 1.5625 10.475 6.43437 13.3172 9.27656L14.0469 10.0062V10.9688C14.0469 11.4719 14.2219 11.9359 14.5156 12.3C14.5203 12.3922 14.5281 12.4828 14.5359 12.5719L14.5938 13.4531C14.171 13.8433 13.8337 14.3169 13.6032 14.844C13.3727 15.3711 13.2541 15.9403 13.2547 16.5156C13.2547 17.5469 13.6297 18.4937 14.25 19.2203V20.0938C14.25 21.4281 14.7828 22.6641 15.6719 23.5672C15.8031 23.9312 15.9625 24.2812 16.1438 24.6172L14.7297 25.6547C14.1531 26.0313 13.5828 26.4547 13.0563 26.8891H13.0547C10.9246 28.644 9.20969 30.849 8.03314 33.3455C6.85659 35.8421 6.24763 38.5682 6.25001 41.3281V46.875C6.25001 47.2894 6.41463 47.6868 6.70765 47.9799C7.00068 48.2729 7.39811 48.4375 7.81251 48.4375H42.1875C42.9969 48.4375 43.7344 48.1 44.2656 47.6141C44.8 47.125 45.2344 46.3797 45.2344 45.4844V37.6875C45.2344 36.0969 44.0391 34.7812 42.5 34.5875V32.8188L42.5016 32.8156L42.5031 32.8125C42.5139 32.7933 42.5282 32.7763 42.5453 32.7625C43.2281 32.2828 43.7563 31.6266 44.0984 30.8578C44.5418 29.8775 44.7724 28.8143 44.775 27.7384C44.7777 26.6625 44.5525 25.5982 44.1141 24.6156C43.7439 23.7889 43.1421 23.0871 42.3815 22.5952C41.6208 22.1033 40.734 21.8423 39.8281 21.8438C38.9232 21.842 38.0372 22.1022 37.277 22.593C36.5167 23.0837 35.9148 23.784 35.5438 24.6094C35.3931 24.9414 35.2667 25.284 35.1656 25.6344L34.9844 25.5172L33.9578 24.7734C34.2625 24.2422 34.5047 23.6734 34.6781 23.0719C35.323 22.2129 35.6718 21.1679 35.6719 20.0938V19.3312C36.3767 18.5631 36.7671 17.5581 36.7656 16.5156C36.7656 15.3625 36.2969 14.3203 35.5438 13.5656L35.6031 12.5906C35.6281 12.3687 35.6469 12.1453 35.6578 11.9203C35.8016 11.6313 35.8844 11.3 35.875 10.9422V10.0219L36.6203 9.27656C39.4625 6.43437 37.4563 1.5625 33.4219 1.5625H16.5156ZM34.4109 7.06719L33.3484 8.12969C33.1618 8.27571 33.0109 8.46235 32.9072 8.67543C32.8035 8.8885 32.7498 9.12241 32.75 9.35937V10.1562H17.1719V9.35937C17.1718 8.94501 17.0071 8.54765 16.7141 8.25469L15.5266 7.06719C14.65 6.19062 15.2703 4.6875 16.5156 4.6875H33.4219C34.6672 4.6875 35.2875 6.19062 34.4109 7.06719ZM23.5781 25.7344C22.5126 25.7347 21.4706 25.4214 20.582 24.8334C19.6934 24.2455 18.9976 23.4089 18.5813 22.4281C18.5607 22.3686 18.5414 22.3087 18.5234 22.2484C18.4959 22.1557 18.4599 22.0657 18.4156 21.9797C18.3221 21.6856 18.2542 21.3839 18.2125 21.0781L17.7656 14.3203C17.7706 14.2485 17.7706 14.1765 17.7656 14.1047L17.6516 12.3516L17.6484 12.3156C17.6308 12.1171 17.6194 11.918 17.6141 11.7188H32.5219C32.5138 11.82 32.5034 11.9211 32.4906 12.0219L32.4859 12.0484L31.9219 21.0797C31.7388 22.372 31.0951 23.5547 30.1091 24.41C29.1232 25.2653 27.8615 25.7356 26.5563 25.7344H23.5781ZM15.9031 28.6375C13.8816 30.0787 12.2343 31.9827 11.0986 34.1904C9.96298 36.3981 9.37199 38.8455 9.37501 41.3281V45.3125H35.1828C35.214 45.0299 35.3011 44.7564 35.4391 44.5078C35.2527 44.1843 35.1544 43.8175 35.1538 43.4442C35.1533 43.0708 35.2506 42.7038 35.4359 42.3797C35.249 42.0536 35.1515 41.684 35.1531 41.3081C35.1548 40.9323 35.2556 40.5635 35.4453 40.2391C35.2526 39.8974 35.1575 39.5093 35.1703 39.1172C35.1953 38.1094 35.9531 37.2453 36.9453 37.1375C37.0135 37.1187 37.084 37.1092 37.1547 37.1094H37.9203V32.7078C37.9188 32.5787 37.886 32.4518 37.8248 32.338C37.7636 32.2243 37.6757 32.1271 37.5688 32.0547L37.5594 32.0469L37.5484 32.0406C36.9938 31.6345 36.55 31.0957 36.2578 30.4734C36.2087 30.3668 36.1624 30.259 36.1188 30.15C35.8671 30.0872 35.6351 29.9626 35.4438 29.7875C34.9926 29.3768 34.5178 28.9928 34.0219 28.6375H27.3C27.8388 29.013 28.2789 29.5131 28.5828 30.0953C28.8867 30.6775 29.0454 31.3245 29.0453 31.9813V34.5906C27.9656 34.5898 26.9302 34.1612 26.1659 33.3986C25.4015 32.636 24.9705 31.6016 24.9672 30.5219C24.9639 31.6016 24.5329 32.636 23.7685 33.3986C23.0042 34.1612 21.9688 34.5898 20.8891 34.5906V31.9813C20.8891 30.5984 21.5797 29.375 22.6344 28.6375H15.9016H15.9031ZM42.1094 39.9844V38.6719H37.3203C37.2664 38.6834 37.2114 38.6891 37.1563 38.6891C36.9688 38.6891 36.7406 38.8688 36.7344 39.1578V39.1656C36.7306 39.2544 36.7475 39.3429 36.7839 39.424C36.8202 39.5051 36.875 39.5766 36.9438 39.6328C37.0407 39.7072 37.1189 39.8032 37.172 39.9133C37.2252 40.0233 37.2517 40.1443 37.2496 40.2665C37.2475 40.3886 37.2167 40.5086 37.1598 40.6167C37.1029 40.7249 37.0214 40.8181 36.9219 40.8891C36.8577 40.9392 36.8059 41.0035 36.7707 41.077C36.7354 41.1504 36.7177 41.231 36.7188 41.3125C36.7188 41.5234 36.8125 41.6641 36.9063 41.7281C37.0103 41.7989 37.0957 41.8937 37.1552 42.0045C37.2148 42.1153 37.2467 42.2389 37.2482 42.3647C37.2497 42.4905 37.2209 42.6148 37.1641 42.727C37.1072 42.8393 37.0242 42.9361 36.9219 43.0094C36.8572 43.0598 36.8052 43.1246 36.77 43.1987C36.7347 43.2727 36.7172 43.3539 36.7188 43.4359C36.7188 43.6453 36.8125 43.7859 36.9063 43.85C37.0098 43.9202 37.095 44.0143 37.1546 44.1244C37.2142 44.2344 37.2465 44.3571 37.2488 44.4822C37.2511 44.6073 37.2233 44.7312 37.1678 44.8433C37.1123 44.9554 37.0306 45.0526 36.9297 45.1266C36.866 45.175 36.816 45.239 36.7844 45.3125H42.1094V39.9844ZM39.8281 25.2344C39.1953 25.2344 38.6344 25.6031 38.3859 26.1609V26.1625C38.1681 26.6524 38.0555 27.1826 38.0555 27.7188C38.0555 28.2549 38.1681 28.7851 38.3859 29.275C38.6344 29.8344 39.1953 30.2031 39.8281 30.2031C40.4609 30.2031 41.0219 29.8344 41.2703 29.2766V29.275C41.7109 28.2906 41.7109 27.15 41.2734 26.1672C41.1458 25.8907 40.9421 25.6562 40.6862 25.491C40.4303 25.3258 40.1327 25.2368 39.8281 25.2344Z" fill="black"/>
</svg>
