<svg width="51" height="50" viewBox="0 0 51 50" fill="none" xmlns="http://www.w3.org/2000/svg">
<path d="M17.6567 46.3964C17.6253 46.3653 17.5941 46.3341 17.563 46.3027C15.8782 46.8704 14.0803 47.0189 12.3252 46.7352C10.5701 46.4515 8.91056 45.7443 7.49036 44.6747C6.07017 43.6051 4.93212 42.2055 4.17477 40.5969C3.41743 38.9884 3.06362 37.2195 3.144 35.4434C3.22437 33.6673 3.7365 31.9376 4.63603 30.404C5.53556 28.8705 6.79537 27.5793 8.30637 26.6424C9.81736 25.7054 11.534 25.1509 13.3076 25.027C15.0811 24.903 16.8582 25.2132 18.4849 25.9308C18.7722 25.5532 18.9295 25.0927 18.9333 24.6183V24.3058C18.9069 22.3313 18.4589 20.3853 17.6192 18.598V18.5699C16.7853 16.703 16.6321 14.6028 17.1863 12.6346C17.7405 10.6665 18.9671 8.95483 20.6527 7.79741C22.3383 6.63999 24.3762 6.11003 26.4121 6.29969C28.448 6.48935 30.353 7.38664 31.7958 8.83549C33.2297 7.38941 35.124 6.49003 37.1509 6.29295C39.1778 6.09587 41.2098 6.61349 42.8954 7.75626C44.581 8.89903 45.8141 10.5951 46.3814 12.5509C46.9487 14.5068 46.8145 16.5994 46.0021 18.4667V18.4777C45.1313 20.4094 44.667 22.4996 44.638 24.6183C44.6338 24.8974 44.6883 25.1742 44.7982 25.4307C44.908 25.6873 45.0706 25.9178 45.2755 26.1074L45.288 26.1199L45.7833 26.5886L45.7974 26.6011C47.1303 27.8767 48.1941 29.4064 48.9259 31.1C49.6577 32.7936 50.0427 34.6166 50.0581 36.4615C50.0736 38.3063 49.7191 40.1356 49.0158 41.8411C48.3124 43.5467 47.2744 45.0941 45.963 46.3917L43.6192 48.7246C43.2251 49.1184 42.757 49.4306 42.242 49.6432C41.7269 49.8559 41.1749 49.9647 40.6177 49.9636H35.4052C34.2831 49.9622 33.2066 49.5194 32.4083 48.7308L31.8005 48.1324L31.2083 48.7214C30.8139 49.1149 30.3458 49.4267 29.8307 49.639C29.3157 49.8514 28.7638 49.9601 28.2067 49.9589H23.0146C21.8925 49.9575 20.816 49.5147 20.0177 48.7261L17.6567 46.3964ZM33.2942 18.3339L33.3536 18.4902L33.4614 18.7855C33.6614 19.3324 33.8302 19.8886 33.9692 20.4511H42.0177C42.2863 19.3418 42.6566 18.2596 43.1239 17.2183C43.4939 16.3617 43.6443 15.4263 43.5615 14.4968C43.4788 13.5674 43.1654 12.6733 42.6499 11.8955C42.1344 11.1177 41.4331 10.4808 40.6093 10.0425C39.7856 9.60412 38.8655 9.3782 37.9324 9.38516C36.9993 9.39212 36.0827 9.63174 35.2656 10.0823C34.4485 10.5329 33.7567 11.1802 33.2529 11.9656C32.749 12.751 32.4491 13.6497 32.3802 14.5802C32.3113 15.5108 32.4756 16.4438 32.8583 17.2949C33.0114 17.6339 33.1552 17.9761 33.288 18.3214L33.2942 18.3339ZM34.4505 24.2792H41.5052C41.5224 23.6996 41.5677 23.1199 41.6364 22.5449H34.3474C34.413 23.1199 34.4474 23.6996 34.4521 24.2792H34.4505ZM34.1442 26.373C33.8815 27.1069 33.4625 27.7749 32.9161 28.3308C34.9642 30.5873 36.0971 33.5265 36.0934 36.5738C36.0896 39.6211 34.9495 42.5575 32.8958 44.8089L34.6083 46.4996C34.8208 46.7074 35.1083 46.8261 35.4052 46.8277H40.5927C40.7406 46.8286 40.8873 46.8001 41.0241 46.7438C41.161 46.6875 41.2852 46.6044 41.3896 46.4996L43.7489 44.1558C44.7641 43.1521 45.5677 41.9551 46.1123 40.6356C46.657 39.316 46.9316 37.9007 46.92 36.4732C46.9083 35.0457 46.6106 33.635 46.0445 32.3245C45.4784 31.014 44.6553 29.8303 43.6239 28.8433L43.1552 28.4058C42.5467 27.848 42.0824 27.151 41.8021 26.3746H34.1442V26.373ZM31.7786 29.4042C30.9661 28.5058 30.0364 27.8214 29.538 26.6792C29.4941 26.5785 29.4534 26.4764 29.4161 26.373H21.7552C21.6018 26.8053 21.3933 27.2159 21.1349 27.5949C22.347 28.6206 23.3208 29.8984 23.9881 31.3392C24.6555 32.7801 25.0005 34.3492 24.9989 35.9371C25.0005 37.6644 24.5922 39.3675 23.8078 40.9065C23.0234 42.4455 21.8851 43.7765 20.4864 44.7902L22.2177 46.498C22.4208 46.7011 22.7177 46.8261 23.0146 46.8261H28.2021C28.4989 46.8261 28.7802 46.7167 28.9989 46.498L31.3583 44.1542C35.388 40.1699 35.5146 33.6511 31.8005 29.4277L31.7786 29.4027V29.4042ZM29.2396 22.5449H21.9583C22.0614 22.9792 22.0614 23.8261 22.0614 24.2886V24.2792H29.1114L29.238 22.5449H29.2396ZM21.5771 20.4511H29.6255C29.7879 19.7865 29.9882 19.1318 30.2255 18.4902L30.2396 18.4542C30.3911 18.0371 30.5552 17.6261 30.7333 17.2167C31.0411 16.5121 31.2021 15.7511 31.2021 14.9824C31.2021 14.8371 31.2021 14.6933 31.1849 14.5496C31.1288 13.7955 30.9211 13.0605 30.5741 12.3887C30.227 11.7169 29.7479 11.1221 29.1655 10.64C28.583 10.1578 27.9092 9.7983 27.1844 9.58291C26.4596 9.36752 25.6987 9.30072 24.9475 9.38652C24.1962 9.47232 23.4701 9.70895 22.8125 10.0822C22.1549 10.4555 21.5795 10.9577 21.1207 11.5588C20.662 12.1598 20.3293 12.8474 20.1427 13.5801C19.9562 14.3128 19.9195 15.0757 20.0349 15.823C20.113 16.3386 20.263 16.8324 20.4677 17.2949L20.5083 17.3855C20.963 18.3746 21.3208 19.4011 21.5771 20.4511ZM15.9989 29.2792C15.9989 28.811 15.8129 28.3619 15.4818 28.0308C15.1507 27.6996 14.7016 27.5136 14.2333 27.5136C13.765 27.5136 13.3159 27.6996 12.9848 28.0308C12.6537 28.3619 12.4677 28.811 12.4677 29.2792C12.4677 29.7475 12.6537 30.1966 12.9848 30.5277C13.3159 30.8588 13.765 31.0449 14.2333 31.0449C14.7016 31.0449 15.1507 30.8588 15.4818 30.5277C15.8129 30.1966 15.9989 29.7475 15.9989 29.2792ZM11.2177 35.4683C11.4495 35.4683 11.6791 35.4226 11.8934 35.3339C12.1076 35.2452 12.3022 35.1151 12.4662 34.9512C12.6301 34.7872 12.7602 34.5926 12.8489 34.3784C12.9376 34.1641 12.9833 33.9345 12.9833 33.7027C12.9833 33.4708 12.9376 33.2412 12.8489 33.027C12.7602 32.8128 12.6301 32.6181 12.4662 32.4542C12.3022 32.2902 12.1076 32.1602 11.8934 32.0715C11.6791 31.9827 11.4495 31.9371 11.2177 31.9371C10.7494 31.9371 10.3003 32.1231 9.9692 32.4542C9.63808 32.7853 9.45206 33.2344 9.45206 33.7027C9.45206 34.171 9.63808 34.62 9.9692 34.9512C10.3003 35.2823 10.7494 35.4683 11.2177 35.4683ZM16.9677 35.4683C17.1995 35.4683 17.4291 35.4226 17.6434 35.3339C17.8576 35.2452 18.0522 35.1151 18.2162 34.9512C18.3801 34.7872 18.5102 34.5926 18.5989 34.3784C18.6876 34.1641 18.7333 33.9345 18.7333 33.7027C18.7333 33.4708 18.6876 33.2412 18.5989 33.027C18.5102 32.8128 18.3801 32.6181 18.2162 32.4542C18.0522 32.2902 17.8576 32.1602 17.6434 32.0715C17.4291 31.9827 17.1995 31.9371 16.9677 31.9371C16.4994 31.9371 16.0503 32.1231 15.7192 32.4542C15.3881 32.7853 15.2021 33.2344 15.2021 33.7027C15.2021 34.171 15.3881 34.62 15.7192 34.9512C16.0503 35.2823 16.4994 35.4683 16.9677 35.4683Z" fill="black"/>
</svg>
