<svg width="50" height="50" viewBox="0 0 50 50" fill="none" xmlns="http://www.w3.org/2000/svg">
<path d="M5.46875 35.9375C4.84715 35.9375 4.25101 35.6906 3.81147 35.251C3.37193 34.8115 3.125 34.2154 3.125 33.5938V9.375C3.125 8.5462 3.45424 7.75134 4.04029 7.16529C4.62634 6.57924 5.4212 6.25 6.25 6.25H23.4375C24.2663 6.25 25.0612 6.57924 25.6472 7.16529C26.2333 7.75134 26.5625 8.5462 26.5625 9.375V10.9375H32.8125C33.6413 10.9375 34.4362 11.2667 35.0222 11.8528C35.6083 12.4388 35.9375 13.2337 35.9375 14.0625V17.1875H43.75C44.5788 17.1875 45.3737 17.5167 45.9597 18.1028C46.5458 18.6888 46.875 19.4837 46.875 20.3125V43.75H25.7812C25.574 43.75 25.3753 43.8323 25.2288 43.9788C25.0823 44.1253 25 44.3241 25 44.5312C25 44.7384 25.0823 44.9372 25.2288 45.0837C25.3753 45.2302 25.574 45.3125 25.7812 45.3125H46.7422C46.5806 45.7697 46.2811 46.1654 45.8851 46.4453C45.4892 46.7251 45.0161 46.8753 44.5312 46.875H25.7812C25.1596 46.875 24.5635 46.6281 24.124 46.1885C23.6844 45.749 23.4375 45.1529 23.4375 44.5312V40.625H14.8438C14.2221 40.625 13.626 40.3781 13.1865 39.9385C12.7469 39.499 12.5 38.9029 12.5 38.2812V35.9375H5.46875ZM26.4297 34.375C26.2681 34.8322 25.9686 35.2279 25.5726 35.5078C25.1767 35.7876 24.7036 35.9378 24.2188 35.9375H34.375V14.0625C34.375 13.6481 34.2104 13.2507 33.9174 12.9576C33.6243 12.6646 33.2269 12.5 32.8125 12.5H26.5625V32.8125H5.46875C5.26155 32.8125 5.06284 32.8948 4.91632 33.0413C4.76981 33.1878 4.6875 33.3865 4.6875 33.5938C4.6875 33.801 4.76981 33.9997 4.91632 34.1462C5.06284 34.2927 5.26155 34.375 5.46875 34.375H26.4297ZM14.0625 35.9375H14.8438C14.5703 35.9375 14.3062 35.9844 14.0625 36.0703V35.9375ZM25 31.25V9.375C25 8.9606 24.8354 8.56317 24.5424 8.27015C24.2493 7.97712 23.8519 7.8125 23.4375 7.8125H7.8125V31.25H25ZM25 40.625V42.3203C25.2437 42.2344 25.5078 42.1875 25.7812 42.1875H45.3125V20.3125C45.3125 19.8981 45.1479 19.5007 44.8549 19.2076C44.5618 18.9146 44.1644 18.75 43.75 18.75H35.9375V37.5H14.8438C14.6365 37.5 14.4378 37.5823 14.2913 37.7288C14.1448 37.8753 14.0625 38.074 14.0625 38.2812C14.0625 38.4884 14.1448 38.6872 14.2913 38.8337C14.4378 38.9802 14.6365 39.0625 14.8438 39.0625H35.8047C35.6431 39.5197 35.3436 39.9154 34.9476 40.1953C34.5517 40.4751 34.0786 40.6253 33.5938 40.625H25Z" fill="black"/>
</svg>
