<svg width="50" height="50" viewBox="0 0 50 50" fill="none" xmlns="http://www.w3.org/2000/svg">
<path d="M15.0003 31.281L18.8909 35.1716C19.4066 35.6873 19.4066 36.5154 18.8909 37.0466C18.7346 37.2026 18.5419 37.3172 18.3302 37.3799C18.1185 37.4427 17.8945 37.4516 17.6784 37.406C17.4675 37.4509 17.2486 37.4422 17.042 37.3804C16.8353 37.3187 16.6474 37.2061 16.4956 37.0529L12.88 33.456C12.6384 33.216 12.5018 32.8899 12.5 32.5494C12.4983 32.2088 12.6315 31.8814 12.8706 31.6388C12.9637 31.4495 13.1005 31.2849 13.2697 31.1589C13.4389 31.0328 13.6357 30.9488 13.8437 30.9139C14.0518 30.8789 14.2652 30.894 14.4664 30.9578C14.6675 31.0217 14.8505 31.1324 15.0003 31.281Z" fill="black"/>
<path d="M37.8112 3.66211C38.1312 3.66205 38.4389 3.78466 38.6712 4.0047C38.9034 4.22474 39.0425 4.52545 39.0597 4.84492C39.4977 4.6687 39.9774 4.62346 40.4406 4.71472C40.9039 4.80598 41.3306 5.0298 41.669 5.35898L44.3722 7.99961C44.7259 8.34517 44.9661 8.79014 45.061 9.27546C45.1559 9.76077 45.1009 10.2635 44.9034 10.7168C45.1467 10.7203 45.3836 10.7947 45.5852 10.9308C45.7868 11.067 45.9443 11.259 46.0383 11.4833C46.1324 11.7077 46.1589 11.9546 46.1147 12.1938C46.0705 12.433 45.9575 12.6542 45.7894 12.8301C45.6214 13.006 45.4057 13.129 45.1688 13.1842C44.9318 13.2393 44.684 13.2241 44.4555 13.1404C44.2271 13.0567 44.0281 12.9082 43.8828 12.713C43.7376 12.5179 43.6524 12.2846 43.6378 12.0418L42.6003 12.7574C42.8163 12.8339 43.0071 12.9683 43.1519 13.1459C43.2967 13.3235 43.3899 13.5375 43.4213 13.7645C43.4527 13.9915 43.4211 14.2227 43.33 14.433C43.2388 14.6432 43.0916 14.8243 42.9045 14.9566C42.7173 15.0888 42.4975 15.1671 42.2688 15.1828C42.0402 15.1985 41.8117 15.1511 41.6082 15.0457C41.4047 14.9403 41.2341 14.781 41.1151 14.5852C40.996 14.3894 40.9331 14.1647 40.9331 13.9355V13.9059L40.8425 13.9684C40.405 14.2652 39.8112 14.2184 39.4362 13.8434L39.3628 13.7715L27.9831 26.609C29.0615 28.482 29.6324 30.604 29.6394 32.7652V32.7699C29.8471 32.7874 30.0491 32.8467 30.2333 32.9442C30.4176 33.0417 30.5802 33.1754 30.7115 33.3373C30.8427 33.4993 30.9399 33.6861 30.9971 33.8865C31.0544 34.0869 31.0705 34.2969 31.0446 34.5037C31.0187 34.7105 30.9512 34.91 30.8463 35.0901C30.7414 35.2702 30.6011 35.4272 30.4339 35.5518C30.2668 35.6763 30.0762 35.7658 29.8736 35.8148C29.671 35.8639 29.4606 35.8714 29.255 35.8371C28.8307 37.4946 28.0672 39.046 27.0128 40.3934C27.1705 40.5336 27.2979 40.7045 27.3871 40.8958C27.4763 41.087 27.5254 41.2945 27.5314 41.5055C27.5374 41.7164 27.5002 41.9263 27.4221 42.1224C27.3439 42.3184 27.2265 42.4964 27.077 42.6453C26.9275 42.7943 26.7491 42.9111 26.5528 42.9885C26.3565 43.0659 26.1465 43.1024 25.9355 43.0956C25.7246 43.0889 25.5173 43.039 25.3264 42.9491C25.1354 42.8593 24.9649 42.7313 24.8253 42.573C23.4054 43.6762 21.762 44.4563 20.0097 44.859C20.0762 45.0774 20.0935 45.3078 20.0605 45.5337C20.0274 45.7596 19.9448 45.9753 19.8185 46.1655C19.6921 46.3557 19.5253 46.5155 19.3299 46.6336C19.1345 46.7517 18.9154 46.825 18.6883 46.8484C18.4612 46.8718 18.2318 46.8446 18.0164 46.7688C17.8011 46.6931 17.6052 46.5705 17.4427 46.4101C17.2803 46.2496 17.1555 46.0552 17.0771 45.8408C16.9987 45.6264 16.9687 45.3973 16.9894 45.1699C14.4946 45.1297 12.0711 44.3313 10.0409 42.8809L9.07686 43.6293C8.95539 43.7258 8.8026 43.774 8.64776 43.7648C8.49292 43.7556 8.34694 43.6895 8.23779 43.5793L6.42842 41.7715C6.32203 41.6602 6.25873 41.5146 6.24986 41.3609C6.24098 41.2071 6.28711 41.0553 6.37998 40.9324L7.12998 39.9621C5.67808 37.924 4.88079 35.4923 4.84404 32.9902C4.6143 33.016 4.38172 32.9899 4.16339 32.9139C3.94506 32.8379 3.74654 32.7139 3.58243 32.5511C3.41831 32.3883 3.29278 32.1908 3.21505 31.9731C3.13733 31.7553 3.10939 31.523 3.13329 31.293C3.15719 31.0631 3.23233 30.8414 3.35317 30.6444C3.47401 30.4473 3.63749 30.2798 3.83158 30.1542C4.02568 30.0287 4.24545 29.9482 4.47474 29.9187C4.70403 29.8892 4.93701 29.9116 5.15654 29.984C5.55602 28.2332 6.33592 26.5918 7.44092 25.1762C7.29512 25.0329 7.17918 24.8621 7.0998 24.6737C7.02042 24.4853 6.97917 24.283 6.97844 24.0786C6.97771 23.8741 7.01752 23.6716 7.09555 23.4826C7.17358 23.2936 7.2883 23.122 7.43307 22.9777C7.57783 22.8333 7.74978 22.7191 7.93896 22.6416C8.12815 22.5641 8.33082 22.5249 8.53525 22.5262C8.73969 22.5275 8.94184 22.5693 9.13001 22.6492C9.31818 22.7292 9.48864 22.8456 9.63154 22.9918C10.9704 21.9498 12.5097 21.195 14.1534 20.7746C14.1127 20.5665 14.1152 20.3523 14.1608 20.1452C14.2063 19.9381 14.294 19.7426 14.4183 19.5708C14.5426 19.399 14.7009 19.2546 14.8833 19.1466C15.0658 19.0386 15.2685 18.9692 15.4789 18.9428C15.6893 18.9164 15.9028 18.9335 16.1063 18.9931C16.3098 19.0527 16.4989 19.1535 16.6618 19.2892C16.8247 19.425 16.9579 19.5928 17.0532 19.7822C17.1486 19.9716 17.2039 20.1785 17.2159 20.3902H17.2331C19.4419 20.3838 21.6117 20.971 23.5159 22.0902L36.0144 10.498L35.9519 10.4371C35.764 10.2589 35.6453 10.0199 35.6167 9.76255C35.5881 9.50518 35.6515 9.24599 35.7956 9.03086L35.905 8.86367C35.6745 8.87511 35.4454 8.82255 35.243 8.71181C35.0406 8.60107 34.8728 8.43648 34.7582 8.23625C34.6436 8.03603 34.5866 7.80798 34.5936 7.57737C34.6006 7.34676 34.6712 7.12258 34.7978 6.92966C34.9243 6.73674 35.1018 6.5826 35.3105 6.48431C35.5192 6.38602 35.7511 6.34742 35.9804 6.37278C36.2097 6.39814 36.4276 6.48647 36.6098 6.62799C36.792 6.76951 36.9315 6.9587 37.0128 7.17461L37.68 6.1543C37.3632 6.11877 37.072 5.96358 36.8659 5.72046C36.6597 5.47734 36.5542 5.16465 36.571 4.84634C36.5878 4.52804 36.7255 4.22816 36.956 4.00803C37.1866 3.78791 37.4925 3.66416 37.8112 3.66211ZM12.1972 41.2121C13.9953 42.2861 16.09 42.7564 18.1747 42.5541C20.2594 42.3518 22.2246 41.4875 23.7827 40.0878C25.3407 38.6881 26.4099 36.8265 26.8337 34.7753C27.2575 32.7242 27.0136 30.5912 26.1378 28.6887L24.5612 30.4684C24.0769 31.0152 23.2331 31.0309 22.7175 30.5309L19.6237 27.5152C19.5015 27.3939 19.4051 27.2491 19.3403 27.0895C19.2754 26.9299 19.2435 26.7589 19.2464 26.5867C19.2494 26.4145 19.2871 26.2446 19.3573 26.0874C19.4275 25.9301 19.5287 25.7886 19.655 25.6715L21.5112 23.9496C20.1732 23.3005 18.7047 22.9649 17.2175 22.9684C15.482 22.9672 13.7772 23.4266 12.2772 24.2995C10.7772 25.1724 9.53569 26.4277 8.67928 27.9371C7.82286 29.4466 7.38226 31.1563 7.40242 32.8917C7.42258 34.6271 7.90279 36.3261 8.79404 37.8152L10.0456 36.1965C10.2925 35.884 10.7362 35.8684 10.9987 36.1309L13.8769 39.009C13.9403 39.0733 13.9893 39.1504 14.0207 39.2351C14.0521 39.3198 14.0651 39.4102 14.0589 39.5003C14.0527 39.5905 14.0274 39.6782 13.9847 39.7578C13.942 39.8375 13.8829 39.9071 13.8112 39.9621L12.1972 41.2121ZM43.28 9.11836L40.58 6.4793C40.4878 6.38967 40.377 6.32147 40.2554 6.27954C40.1338 6.23761 40.0045 6.22299 39.8767 6.23672C39.7488 6.25044 39.6256 6.29217 39.5157 6.35895C39.4058 6.42572 39.312 6.51589 39.2409 6.62305L37.3034 9.57617L40.2644 12.4684L43.1706 10.4684C43.2758 10.3939 43.3634 10.2974 43.4275 10.1856C43.4915 10.0738 43.5304 9.94936 43.5414 9.82098C43.5524 9.6926 43.5353 9.56336 43.4912 9.44228C43.4471 9.3212 43.3772 9.21119 43.2862 9.11992L43.2831 9.1168L43.28 9.11836Z" fill="black"/>
</svg>
