<svg width="45" height="40" viewBox="0 0 45 40" fill="none" xmlns="http://www.w3.org/2000/svg">
<path d="M40.7812 6.25H4.21875C3.44092 6.25 2.8125 6.80859 2.8125 7.5V32.5C2.8125 33.1914 3.44092 33.75 4.21875 33.75H40.7812C41.5591 33.75 42.1875 33.1914 42.1875 32.5V7.5C42.1875 6.80859 41.5591 6.25 40.7812 6.25ZM14.8535 11.875C16.4048 11.875 17.666 12.9961 17.666 14.375C17.666 15.7539 16.4048 16.875 14.8535 16.875C13.3022 16.875 12.041 15.7539 12.041 14.375C12.041 12.9961 13.3022 11.875 14.8535 11.875ZM37.437 28.9492C37.373 28.997 37.2921 29.0233 37.2085 29.0234H7.78711C7.59375 29.0234 7.43555 28.8828 7.43555 28.7109C7.43555 28.6367 7.46631 28.5664 7.51904 28.5078L15.0029 20.6172C15.126 20.4844 15.3501 20.4688 15.4995 20.5781C15.5127 20.5898 15.5303 20.6016 15.5435 20.6172L19.9116 25.2266L26.8594 17.9023C26.9824 17.7695 27.2065 17.7539 27.356 17.8633C27.3691 17.875 27.3867 17.8867 27.3999 17.9023L37.4897 28.5117C37.604 28.6406 37.5864 28.8398 37.437 28.9492Z" fill="#212529"/>
</svg>
