<svg width="50" height="50" viewBox="0 0 50 50" fill="none" xmlns="http://www.w3.org/2000/svg">
<path d="M25 2.34375C12.4875 2.34375 2.34375 12.4875 2.34375 25C2.34375 37.5125 12.4875 47.6562 25 47.6562C37.5125 47.6562 47.6562 37.5125 47.6562 25C47.6562 12.4875 37.5125 2.34375 25 2.34375ZM4.69063 24.6766C6.70873 23.9502 8.58085 22.8692 10.2188 21.4844C12.0781 19.9219 13.5625 18.0469 14.6406 15.9688C15.8906 16.6094 17.1094 17.2969 18.3125 18.0312C13.5716 23.8566 10.587 30.9112 9.70781 38.3703C6.39141 34.5881 4.60273 29.7061 4.69063 24.6766ZM22.7656 45.1922C18.4461 44.7187 14.3937 42.8675 11.2078 39.9125C11.8466 32.2163 14.8093 24.896 19.7031 18.9219C21.2656 19.9375 22.7656 21.0156 24.2188 22.1719C23.9219 22.4844 23.6406 22.7969 23.3594 23.1406C20.3125 26.875 18.9062 31.5781 19.3906 36.3906C19.7148 39.5715 20.8797 42.6088 22.7656 45.1906V45.1922ZM38.9875 39.7297C35.2166 43.3204 30.207 45.3199 25 45.3125H24.9797C22.7506 42.7652 21.3705 39.5866 21.0312 36.2188C20.7889 33.8551 21.063 31.4669 21.8346 29.2196C22.6061 26.9723 23.8568 24.9194 25.5 23.2031C30.9746 27.835 35.5471 33.4377 38.9875 39.7297ZM44.6484 19.8266C45.0813 21.4781 45.3125 23.2125 45.3125 25C45.3125 30.1781 43.375 34.9031 40.1875 38.4906C36.7129 32.2557 32.1454 26.6964 26.7031 22.0781C29.2188 19.9062 32.3438 18.5625 35.7188 18.2188C38.7876 17.8999 41.884 18.458 44.6484 19.8281V19.8266ZM35.3438 7.51562C39.2847 9.85308 42.3232 13.4502 43.9688 17.7266C41.2936 16.6741 38.4046 16.2802 35.5453 16.5781C31.7328 16.9687 28.2172 18.5156 25.4047 21.0156C23.9203 19.8281 22.3734 18.7031 20.7797 17.6562C24.7749 13.184 29.7631 9.71083 35.3438 7.51562ZM16.6047 6.5C19.2412 5.30217 22.1041 4.68409 25 4.6875C28.0187 4.6875 30.8828 5.34531 33.4578 6.52656C28.0675 8.86204 23.2589 12.3582 19.375 16.7656C18.0625 15.9531 16.7188 15.1875 15.3281 14.4688C16 12.8125 16.4219 11.0469 16.5781 9.21875C16.6656 8.30469 16.6687 7.39687 16.6047 6.49844V6.5ZM9.5 11.8703C11.0512 10.04 12.9131 8.49768 15 7.31406C15.0156 7.90156 15 8.48906 14.9531 9.07812C14.8125 10.7031 14.4375 12.2656 13.8594 13.75C12.4316 13.0661 10.9774 12.4391 9.5 11.8703ZM4.79844 22.8641C5.16033 19.3922 6.41571 16.0734 8.44219 13.2313C10.0486 13.8262 11.6268 14.4946 13.1719 15.2344C12.1875 17.125 10.8438 18.8125 9.15625 20.2344C7.81406 21.3656 6.34375 22.2359 4.79844 22.8641Z" fill="black"/>
</svg>
