<svg width="50" height="50" viewBox="0 0 50 50" fill="none" xmlns="http://www.w3.org/2000/svg">
<path d="M44.9572 15.8904L25.3947 4.78102C25.2741 4.71829 25.1401 4.68555 25.0041 4.68555C24.8681 4.68555 24.7341 4.71829 24.6135 4.78102L5.05096 15.8904C4.70721 16.0935 4.58221 16.5154 4.78533 16.8591C4.86589 16.9865 4.98344 17.0861 5.12224 17.1448C5.26103 17.2034 5.41444 17.2183 5.56189 17.1873H6.30096V19.3123C6.30096 19.8591 6.73846 20.2966 7.28533 20.2966H7.83221V20.5935C7.83221 21.2966 8.39471 21.8591 9.09783 21.8591H9.37439V40.5935H9.08221C8.37908 40.5935 7.81658 41.156 7.81658 41.8591V42.1404H5.70721C5.16033 42.1404 4.72283 42.5779 4.72283 43.1248V46.8279H45.2697V43.1248C45.2697 42.5779 44.8322 42.1404 44.2853 42.1404H42.1447V41.8591C42.1447 41.156 41.5822 40.5935 40.8791 40.5935H40.5822V21.8591H40.8947C41.5978 21.8591 42.1603 21.2966 42.1603 20.5935V20.2966H42.7541C43.301 20.2966 43.7385 19.8591 43.7385 19.3123V17.1873H44.44C44.4915 17.1974 44.5438 17.2026 44.5963 17.2029C44.8463 17.2029 45.0963 17.0779 45.2213 16.8591C45.4244 16.5154 45.315 16.0779 44.9556 15.8904H44.9572ZM34.3478 42.1404H33.3166V41.8591C33.3166 41.156 32.7541 40.5935 32.051 40.5935H31.7385V21.8591H32.051C32.7541 21.8591 33.3166 21.2966 33.3166 20.5935V20.2966H34.3635V20.5935C34.3635 21.2966 34.926 21.8591 35.6291 21.8591H35.9103V40.5935H35.6135C34.9103 40.5935 34.3478 41.156 34.3478 41.8591V42.1404ZM25.5197 42.1404H24.4572V41.8591C24.4572 41.156 23.8947 40.5935 23.1916 40.5935H22.8947V21.8591H23.1916C23.8947 21.8591 24.4572 21.2966 24.4572 20.5935V20.2966H25.5197V20.5935C25.5197 21.2966 26.0822 21.8591 26.7853 21.8591H27.0666V40.5935H26.7853C26.0822 40.5935 25.5197 41.156 25.5197 41.8591V42.1404ZM16.6603 42.1404H15.6135V41.8591C15.6135 41.156 15.051 40.5935 14.3478 40.5935H14.0619V21.8591H14.3635C15.0666 21.8591 15.6291 21.2966 15.6291 20.5935V20.2966H16.6603V20.5935C16.6603 21.2966 17.2228 21.8591 17.926 21.8591H18.2228V40.5935H17.926C17.2228 40.5935 16.6603 41.156 16.6603 41.8591V42.1404ZM9.54002 17.1716L25.0041 8.45758L40.4681 17.1716H9.54002Z" fill="black"/>
</svg>
