<svg width="32" height="32" viewBox="0 0 32 32" fill="none" xmlns="http://www.w3.org/2000/svg">
<path d="M26 2H6C5.44687 2 5 2.44687 5 3V29C5 29.5531 5.44687 30 6 30H26C26.5531 30 27 29.5531 27 29V3C27 2.44687 26.5531 2 26 2ZM17.875 4.25H20.875V10.8094L19.4219 9.75L17.875 10.8562V4.25ZM24.75 27.75H7.25V4.25H16V13.5281C16 13.6312 16.0312 13.7344 16.0938 13.8188C16.1317 13.8724 16.1799 13.918 16.2356 13.9528C16.2912 13.9877 16.3533 14.0112 16.4181 14.022C16.4829 14.0327 16.5492 14.0305 16.6131 14.0155C16.6771 14.0004 16.7374 13.9729 16.7906 13.9344L19.4094 12.0625L21.9531 13.9187C22.0375 13.9812 22.1406 14.0156 22.2469 14.0156C22.5219 14.0156 22.7469 13.7906 22.7469 13.5156V4.25H24.7469V27.75H24.75Z" fill="black"/>
</svg>
