<svg width="32" height="32" viewBox="0 0 32 32" fill="none" xmlns="http://www.w3.org/2000/svg">
<path d="M11.3437 15.8031C11.3139 15.8265 11.2897 15.8564 11.2731 15.8905C11.2565 15.9246 11.2478 15.9621 11.2478 16C11.2478 16.0379 11.2565 16.0754 11.2731 16.1095C11.2897 16.1436 11.3139 16.1735 11.3437 16.1969L15.7719 19.6969C15.9344 19.825 16.175 19.7094 16.175 19.5V17.1844H26.75C26.8875 17.1844 27 17.0719 27 16.9344V15.0594C27 14.9219 26.8875 14.8094 26.75 14.8094L16.1781 14.8094V12.5C16.1781 12.2906 15.9375 12.175 15.775 12.3031L11.3437 15.8031ZM12.4375 27.4375L12.4375 25.5625C12.4375 25.425 12.325 25.3125 12.1875 25.3125L7.375 25.3125L7.375 6.6875H12.1875C12.325 6.6875 12.4375 6.575 12.4375 6.4375V4.5625C12.4375 4.425 12.325 4.3125 12.1875 4.3125L6 4.3125C5.44687 4.3125 5 4.75937 5 5.3125L5 26.6875C5 27.2406 5.44687 27.6875 6 27.6875L12.1875 27.6875C12.325 27.6875 12.4375 27.575 12.4375 27.4375Z" fill="black"/>
</svg>
