<svg width="32" height="32" viewBox="0 0 32 32" fill="none" xmlns="http://www.w3.org/2000/svg">
<path d="M27.9383 14.4374C28.904 14.4374 29.3071 13.1968 28.5227 12.6249L16.5883 3.94365C16.4179 3.81878 16.2121 3.75146 16.0008 3.75146C15.7896 3.75146 15.5838 3.81878 15.4133 3.94365L3.47897 12.6249C2.69459 13.1937 3.09772 14.4374 4.06647 14.4374H6.00084V26.1249H3.75084C3.61334 26.1249 3.50084 26.2374 3.50084 26.3749V27.9999C3.50084 28.1374 3.61334 28.2499 3.75084 28.2499H28.2508C28.3883 28.2499 28.5008 28.1374 28.5008 27.9999V26.3749C28.5008 26.2374 28.3883 26.1249 28.2508 26.1249H26.0008V14.4374H27.9383ZM16.0008 6.14678L24.4727 12.3093H7.52897L16.0008 6.14678ZM8.25084 14.4374H11.9071V26.1249H8.25084V14.4374ZM14.1571 14.4374H17.8133V26.1249H14.1571V14.4374ZM23.7508 26.1249H20.0633V14.4374H23.7508V26.1249Z" fill="black"/>
</svg>
