<svg width="32" height="32" viewBox="0 0 32 32" fill="none" xmlns="http://www.w3.org/2000/svg">
<path d="M9 13.1562C9 13.5541 9.15804 13.9356 9.43934 14.2169C9.72064 14.4982 10.1022 14.6562 10.5 14.6562C10.8978 14.6562 11.2794 14.4982 11.5607 14.2169C11.842 13.9356 12 13.5541 12 13.1562C12 12.7584 11.842 12.3769 11.5607 12.0956C11.2794 11.8143 10.8978 11.6562 10.5 11.6562C10.1022 11.6562 9.72064 11.8143 9.43934 12.0956C9.15804 12.3769 9 12.7584 9 13.1562ZM20 13.1562C20 13.5541 20.158 13.9356 20.4393 14.2169C20.7206 14.4982 21.1022 14.6562 21.5 14.6562C21.8978 14.6562 22.2794 14.4982 22.5607 14.2169C22.842 13.9356 23 13.5541 23 13.1562C23 12.7584 22.842 12.3769 22.5607 12.0956C22.2794 11.8143 21.8978 11.6562 21.5 11.6562C21.1022 11.6562 20.7206 11.8143 20.4393 12.0956C20.158 12.3769 20 12.7584 20 13.1562ZM16 2C8.26875 2 2 8.26875 2 16C2 23.7313 8.26875 30 16 30C23.7313 30 30 23.7313 30 16C30 8.26875 23.7313 2 16 2ZM24.2188 24.2188C23.15 25.2875 21.9062 26.125 20.5219 26.7125C19.0938 27.3188 17.5719 27.625 16 27.625C14.4281 27.625 12.9062 27.3188 11.475 26.7125C10.0927 26.1287 8.83713 25.2818 7.77812 24.2188C6.70937 23.15 5.87188 21.9062 5.28438 20.5219C4.68125 19.0938 4.375 17.5719 4.375 16C4.375 14.4281 4.68125 12.9062 5.2875 11.475C5.87127 10.0927 6.71824 8.83713 7.78125 7.77812C8.85 6.70937 10.0938 5.87188 11.4781 5.28438C12.9062 4.68125 14.4281 4.375 16 4.375C17.5719 4.375 19.0938 4.68125 20.525 5.2875C21.9073 5.87127 23.1629 6.71824 24.2219 7.78125C25.2906 8.85 26.1281 10.0938 26.7156 11.4781C27.3188 12.9062 27.625 14.4281 27.625 16C27.625 17.5719 27.3188 19.0938 26.7125 20.525C26.1294 21.9067 25.2824 23.1614 24.2188 24.2188ZM20.75 16.6562H19.2469C19.1156 16.6562 19.0031 16.7563 18.9937 16.8875C18.875 18.4344 17.5781 19.6562 16 19.6562C14.4219 19.6562 13.1219 18.4344 13.0063 16.8875C12.9969 16.7563 12.8844 16.6562 12.7531 16.6562H11.25C11.2161 16.6562 11.1825 16.6631 11.1514 16.6764C11.1202 16.6897 11.092 16.7093 11.0687 16.7338C11.0453 16.7584 11.0271 16.7874 11.0153 16.8192C11.0035 16.851 10.9983 16.8849 11 16.9188C11.1375 19.5531 13.3281 21.6562 16 21.6562C18.6719 21.6562 20.8625 19.5531 21 16.9188C21.0017 16.8849 20.9965 16.851 20.9847 16.8192C20.9729 16.7874 20.9547 16.7584 20.9313 16.7338C20.908 16.7093 20.8798 16.6897 20.8486 16.6764C20.8175 16.6631 20.7839 16.6562 20.75 16.6562Z" fill="black"/>
</svg>
