<svg width="32" height="32" viewBox="0 0 32 32" fill="none" xmlns="http://www.w3.org/2000/svg">
<path d="M30.7446 26.1146C29.9419 24.3183 28.777 22.6866 27.3148 21.3106C25.8571 19.9305 24.1303 18.8302 22.2297 18.0704C22.2127 18.0623 22.1957 18.0583 22.1787 18.0503C24.8297 16.2412 26.5531 13.2945 26.5531 9.96985C26.5531 4.46231 21.8297 0 16 0C10.1703 0 5.44688 4.46231 5.44688 9.96985C5.44688 13.2945 7.17027 16.2412 9.82132 18.0543C9.8043 18.0623 9.78728 18.0663 9.77025 18.0744C7.86388 18.8342 6.15326 19.9236 4.68518 21.3146C3.22438 22.6917 2.05969 24.3231 1.25542 26.1186C0.465304 27.8764 0.0391782 29.761 0.000106408 31.6704C-0.00102935 31.7133 0.00693667 31.7559 0.0235353 31.7959C0.0401339 31.8358 0.0650292 31.8723 0.0967543 31.903C0.128479 31.9337 0.166392 31.9581 0.208259 31.9748C0.250126 31.9914 0.295099 32 0.34053 32H2.8937C3.08094 32 3.22987 31.8593 3.23413 31.6864C3.31923 28.5829 4.63837 25.6764 6.97027 23.4734C9.38302 21.194 12.5873 19.9397 16 19.9397C19.4127 19.9397 22.617 21.194 25.0297 23.4734C27.3616 25.6764 28.6808 28.5829 28.7659 31.6864C28.7701 31.8633 28.9191 32 29.1063 32H31.6595C31.7049 32 31.7499 31.9914 31.7917 31.9748C31.8336 31.9581 31.8715 31.9337 31.9032 31.903C31.935 31.8723 31.9599 31.8358 31.9765 31.7959C31.9931 31.7559 32.001 31.7133 31.9999 31.6704C31.9573 29.7487 31.5361 27.8794 30.7446 26.1146ZM16 16.8844C14.0468 16.8844 12.2085 16.1648 10.8256 14.8583C9.4426 13.5518 8.6809 11.8151 8.6809 9.96985C8.6809 8.12462 9.4426 6.38794 10.8256 5.08141C12.2085 3.77487 14.0468 3.05528 16 3.05528C17.9532 3.05528 19.7915 3.77487 21.1744 5.08141C22.5574 6.38794 23.3191 8.12462 23.3191 9.96985C23.3191 11.8151 22.5574 13.5518 21.1744 14.8583C19.7915 16.1648 17.9532 16.8844 16 16.8844Z" fill="#FD8D04"/>
</svg>
