<svg width="20" height="20" viewBox="0 0 20 20" fill="none" xmlns="http://www.w3.org/2000/svg">
<path d="M4.98529 7.20754C4.92945 7.29647 4.8804 7.38977 4.83867 7.48667L4.98529 7.20754ZM4.98529 7.20754C5.24345 7.37153 5.45454 7.4515 5.5284 7.47948L5.53103 7.48048C5.73138 7.55641 5.89793 7.59484 5.98172 7.61258C6.36357 7.69344 6.76775 7.68835 6.82814 7.68759C6.8315 7.68754 6.83379 7.68751 6.83496 7.68751C7.12692 7.68751 7.35169 7.84722 7.45251 8.03981L9.39368 11.7479C9.38024 11.776 9.36674 11.8041 9.35318 11.8322C9.04589 12.4692 8.73716 13.0555 8.46419 13.5508C8.20172 13.3294 7.93158 13.0925 7.66131 12.8429L7.66098 12.8426C6.69127 11.9474 5.9804 11.1274 5.50316 10.4163L4.98529 7.20754ZM4.67285 8.29103C4.67285 8.01054 4.72792 7.74411 4.83858 7.48689L4.87084 9.23549C4.72158 8.84473 4.67285 8.53037 4.67285 8.29103ZM5.50273 10.4156C5.20289 9.96794 4.99892 9.56968 4.8711 9.23618L5.50273 10.4156Z" fill="#212529" stroke="black" stroke-width="6"/>
</svg>
