<?xml version="1.0" encoding="UTF-8"?><svg id="Calque_2" xmlns="http://www.w3.org/2000/svg" xmlns:xlink="http://www.w3.org/1999/xlink" viewBox="0 0 667.13 667.13"><defs><style>.cls-1{fill:none;}.cls-2{clip-path:url(#clippath);}.cls-3{fill:#f9524e;}.cls-4{fill:#00b5f6;}.cls-5{fill:#ff49a3;}.cls-6{fill:#fff;}.cls-7{fill:#ffdd14;}</style><clipPath id="clippath"><path class="cls-1" d="M651.12,208.61v249.92c-90.89-33.11-200.09-52.41-317.55-52.41s-226.66,19.3-317.55,52.41V208.61c90.89,33.11,200.09,52.41,317.55,52.41s226.66-19.3,317.55-52.41Z"/></clipPath></defs><g id="Layer_1"><g><rect class="cls-6" width="667.13" height="667.13" rx="68.75" ry="68.75"/><path class="cls-3" d="M651.12,208.61v249.92c-90.89-33.11-200.09-52.41-317.55-52.41s-226.66,19.3-317.55,52.41V208.61c90.89,33.11,200.09,52.41,317.55,52.41s226.66-19.3,317.55-52.41Z"/><g><path class="cls-4" d="M651.12,68.75V208.61c-90.89,33.11-200.09,52.41-317.55,52.41S106.9,241.71,16.02,208.61V68.75c0-29.13,23.61-52.73,52.74-52.73H598.38c29.13,0,52.73,23.61,52.73,52.73Z"/><path class="cls-5" d="M651.12,458.52v139.86c0,29.13-23.61,52.73-52.73,52.73H68.75c-29.13,0-52.74-23.61-52.74-52.73v-139.86c90.89-33.11,200.09-52.41,317.55-52.41s226.66,19.3,317.55,52.41Z"/></g><g><path class="cls-6" d="M308.92,145.96c6.81,2.49,12.07,5.83,15.8,10.05,3.73,4.21,5.59,9.56,5.59,16.04s-1.46,11.34-4.38,15.23-7.08,6.91-12.48,9.07c-5.4,2.16-11.89,3.65-19.45,4.46-7.56,.81-15.99,1.22-25.28,1.22h-63.2V91.84h61.58c8.43,0,16.2,.49,23.33,1.46,7.13,.97,13.29,2.65,18.47,5.02,5.19,2.38,9.24,5.59,12.15,9.64,2.92,4.05,4.38,9.21,4.38,15.48,0,5.73-1.46,10.37-4.38,13.94-2.92,3.56-6.97,6.43-12.15,8.59Zm-53.15-10.37h9.72c4.86,0,8.1-.75,9.72-2.27,1.62-1.51,2.43-3.19,2.43-5.02s-.81-3.51-2.43-5.02c-1.62-1.51-4.86-2.27-9.72-2.27h-9.72v14.58Zm11.34,37.27c4.86,0,8.1-.75,9.72-2.27,1.62-1.51,2.43-3.19,2.43-5.02s-.81-3.51-2.43-5.02c-1.62-1.51-4.86-2.27-9.72-2.27h-11.34v14.58h11.34Z"/><path class="cls-6" d="M404.85,124.25v8.1h46.99v27.55h-46.99v9.72h55.1v32.41h-105.33V91.84h105.33v32.41h-55.1Z"/></g><g><path class="cls-6" d="M186.76,526c0,2.92,.46,5.92,1.38,8.99,.92,3.08,2.35,5.86,4.29,8.35,1.95,2.49,4.46,4.54,7.54,6.16,3.08,1.62,6.78,2.43,11.1,2.43,1.08,0,2.16-.05,3.24-.16,1.08-.11,2.21-.27,3.4-.49v35.65c-3.03,1.08-6.19,1.89-9.48,2.43-3.3,.54-7.1,.81-11.42,.81-7.56,0-14.61-1.11-21.15-3.32-6.54-2.21-12.37-5.43-17.5-9.64-5.13-4.21-9.51-9.37-13.13-15.48-3.62-6.1-6.24-13.05-7.86-20.82v46.02h-50.24v-110.19h50.24v50.72l30.3-50.72h50.23l-30.95,49.26Z"/><path class="cls-6" d="M290.63,476.74v110.19h-50.23v-110.19h50.23Z"/><path class="cls-6" d="M316.56,471.88l79.4,42.13v-37.27h45.37v115.38l-79.4-42.13v37.27h-45.37v-115.38Z"/><path class="cls-6" d="M528.84,476.74c9.29,0,17.88,1.35,25.77,4.05,7.88,2.7,14.72,6.48,20.5,11.34,5.78,4.86,10.32,10.67,13.61,17.42,3.29,6.75,4.94,14.18,4.94,22.28s-1.65,15.53-4.94,22.28c-3.3,6.75-7.83,12.56-13.61,17.42-5.78,4.86-12.61,8.64-20.5,11.34-7.89,2.7-16.48,4.05-25.77,4.05h-61.58v-110.19h61.58Zm-1.62,69.68c4.86,0,8.64-1.48,11.34-4.46,2.7-2.97,4.05-6.35,4.05-10.13s-1.35-7.16-4.05-10.13c-2.7-2.97-6.48-4.46-11.34-4.46h-11.34v29.17h11.34Z"/></g><g class="cls-2"><path class="cls-7" d="M332.88,335.59s-.09-.02-.13-.03l-54.07-233.22h-59.59l113.51,233.22s-.1,.02-.14,.04l-4.24-5.46h.02l-.74-.94h0L145.03,102.35H37.87l288.47,228.72h0l.53,.42h0l5.41,4.21s-.08,.08-.12,.13l-6.78-3.19L2.69,178.31v83.67l321.75,72.02,7.67,1.97c-.02,.06-.04,.13-.04,.2h-6.77v-.03l-322.62,.94v75.28l322.87-74.43h0l6.55-1.57s.02,.05,.03,.07l-6.15,2.77h0L2.69,496.4v73.39H41.5l285.16-228.87,5.57-4.36s.06,.06,.09,.09l-4.46,5.95h.01l-180.51,227.2h73.6l108.71-226.7h0l.07-.15h0l2.71-6.23s.07,.03,.11,.03l-1.51,6.65h0l-50.91,226.39h53.16v-226.18h-.01l-.55-6.85c.07,0,.14-.02,.2-.05l1.94,7.12,51.79,225.96h59.33l-112.96-233.13s.07-.05,.1-.09l186.8,233.22h106.71l-293.43-233.32s.03-.04,.04-.07l6.97,3,322.87,155.3v-83.82l-322.65-72.9-7.16-1.67s.02-.09,.02-.14c0-.01,0-.02,0-.03h7.58l322.21-.42v-75.16l-329.8,75.48s-.01-.04-.02-.05l329.82-159.35V102.35h-37.62l-292.23,233.55s-.03-.06-.05-.09l186.11-233.46h-73.79l-112.4,233.37s-.06-.05-.09-.07l53.1-233.3h-53.7l.48,233.25Z"/></g></g></g></svg>