<?xml version="1.0" encoding="UTF-8"?><svg id="Calque_2" xmlns="http://www.w3.org/2000/svg" viewBox="0 0 548.82 360.46"><defs><style>.cls-1{fill:#00b5f6;}.cls-2{fill:#ff49a3;}</style></defs><g id="Layer_1"><g><path class="cls-2" d="M274.41,360.46c-71.89,0-139.72-17.89-191.01-50.36C29.62,276.04,0,229.92,0,180.23S29.62,84.42,83.41,50.36C134.69,17.89,202.53,0,274.41,0s139.72,17.89,191.01,50.36c53.78,34.06,83.41,80.18,83.41,129.87s-29.62,95.81-83.41,129.87c-51.29,32.48-119.12,50.36-191.01,50.36Z"/><ellipse class="cls-1" cx="274.41" cy="180.23" rx="256.8" ry="162.61"/><g><path class="cls-2" d="M129.3,264.8c-11.49-9.97-21.93-20.83-31.77-32.33-12.95-15.14-20.97-34.16-20.98-52.16-.01-18.08,8.01-37.17,21.02-52.37,9.83-11.5,20.28-22.37,31.78-32.33,9.28-8.04,16.87-14.06,23.15-17.33,4.84-2.53,8.21-2.79,10.71-.26,2.5,2.52,3.86,7.44,4.28,14.85,.42,7.41-.41,16.63-2.65,27.32-1.04,4.99-2.38,9.53-4.09,13.55-1.71,4.02-3.61,7.22-5.75,9.57-2.14,2.34-4.24,3.59-6.31,3.78-2.47,.22-4.33-.42-5.56-1.89-1.24-1.47-2.04-3.33-2.38-5.59-.34-2.25-.5-5.19-.36-8.75,.16-4.11,.26-7.56,.2-10.37-.06-2.8-.57-4.96-1.55-6.48-.98-1.52-2.67-1.9-5.12-1.21-3.46,.98-7.52,4.03-12.11,8.97-4.59,4.95-9.64,12.12-14.01,21.74-5.24,11.52-7.83,24.18-7.82,36.81,0,12.6,2.59,25.24,7.84,36.73,4.37,9.57,9.39,16.71,13.96,21.65,4.57,4.94,8.64,7.99,12.15,8.98,2.45,.69,4.14,.31,5.12-1.21,.98-1.52,1.49-3.68,1.55-6.48,.06-2.8-.03-6.26-.2-10.37-.15-3.67-.02-6.67,.33-8.93,.34-2.26,1.15-4.09,2.4-5.5,1.25-1.41,3.11-2.02,5.58-1.8,2.07,.19,4.17,1.44,6.31,3.78,2.14,2.34,4.04,5.58,5.76,9.66,1.72,4.08,3.05,8.6,4.07,13.46,2.21,10.58,3.02,19.8,2.61,27.31-.4,7.52-1.76,12.43-4.3,14.89-2.54,2.46-5.89,2.19-10.64-.3-6.28-3.28-13.89-9.32-23.2-17.4Z"/><path class="cls-2" d="M210.87,293.09c-11.02-11.7-19.17-26.17-25.64-40.92-10.06-22.93-14.2-47.83-14.19-72.05,0-24.19,4.14-49.05,14.21-71.94,6.47-14.71,14.63-29.15,25.63-40.82,8.47-9,16.61-14.25,24.55-15.48,7.89-1.22,14.98,1.77,21.44,9.33,9.54,11.17,13.54,26.27,17.19,40.13,6.63,25.19,7.56,52.68,7.56,78.76s-.95,53.65-7.56,78.88c-3.64,13.9-7.62,29.04-17.19,40.23-6.46,7.57-13.55,10.56-21.44,9.33-7.94-1.23-16.08-6.48-24.55-15.48Zm28.69-37.12c2.77-6.03,4.79-15.26,6.12-27.9,1.68-15.91,1.94-32.07,1.94-47.96,0-15.82-.26-31.9-1.94-47.74-1.34-12.63-3.35-21.87-6.12-27.9-2.76-6.03-6.18-8.77-10.47-8.4-4.35,.38-8.43,3.76-12.33,10.12-3.9,6.37-7.48,15.61-10.24,27.93-3.39,15.17-4.61,30.85-4.61,45.99,0,15.2,1.21,30.96,4.61,46.2,2.76,12.33,6.34,21.57,10.24,27.93,3.9,6.37,7.98,9.75,12.33,10.12,4.28,.37,7.7-2.37,10.47-8.4Z"/><path class="cls-2" d="M316.98,298.97c-9.44-11.14-13.3-26.24-16.86-40.04-6.52-25.23-7.39-52.71-7.39-78.82,0-26.06,.86-53.51,7.39-78.7,3.57-13.77,7.44-28.82,16.86-39.94,6.34-7.48,13.37-10.38,21.26-9.07,7.84,1.3,15.93,6.59,24.46,15.6,10.9,11.5,19.41,26.23,25.76,40.66,9.89,22.47,14.31,47.73,14.32,71.45,0,23.76-4.41,49.05-14.3,71.56-6.35,14.46-14.86,29.23-25.78,40.76-8.53,9.01-16.62,14.3-24.46,15.6-7.89,1.31-14.92-1.59-21.26-9.07Zm40.22-45.05c3.89-6.35,7.5-15.55,10.29-27.82,3.45-15.16,4.69-30.84,4.69-45.97,0-15.06-1.25-30.67-4.69-45.76-2.8-12.27-6.41-21.47-10.29-27.82-3.88-6.35-7.93-9.73-12.19-10.13-4.32-.4-7.74,2.31-10.48,8.3-2.74,5.99-4.71,15.19-5.99,27.79-1.6,15.8-1.83,31.83-1.83,47.62,0,15.86,.22,31.97,1.83,47.84,1.28,12.6,3.25,21.79,5.99,27.79,2.74,6,6.16,8.7,10.48,8.3,4.26-.4,8.31-3.77,12.19-10.13Z"/><path class="cls-2" d="M472.26,236.3c.15,1.72-1.6,4.72-5.47,9.04-3.94,4.39-8.13,8.11-12.07,11.47-3.94,3.36-7.45,6.21-10.64,8.38-8.69,5.99-18.31,11.41-27.88,15.85-3.78,1.8-5.38,.84-5.15-3.16,.23-4,2.33-10.9,5.85-20.87,16.82-52.63,16.47-104.15-1.08-156.52-3.65-9.9-6-16.79-6.58-20.88-.58-4.09,.62-5.16,3.99-3.51,3.37,1.65,7.37,5.18,12.02,10.48,4.65,5.31,9.69,12.14,14.13,21.08,20.11,45.15,21.72,88.63,4.63,135.03,9.36-2.64,13.83-4.05,22.26-7.04,3.8-1.35,5.85-1.06,6,.66Z"/></g></g></g></svg>