<?xml version="1.0" encoding="UTF-8"?><svg id="Calque_2" xmlns="http://www.w3.org/2000/svg" viewBox="0 0 661.98 661.97"><defs><style>.cls-1{fill:#00acf5;}.cls-2{fill:#fffeff;}.cls-3{fill:#2ddcb5;}</style></defs><g id="Layer_1"><g><path class="cls-3" d="M330.99,661.97c-44.68,0-88.03-8.75-128.84-26.02-39.42-16.67-74.81-40.54-105.2-70.93-30.39-30.39-54.26-65.79-70.93-105.2C8.75,419.01,0,375.66,0,330.99s8.75-88.03,26.02-128.84c16.67-39.42,40.53-74.81,70.93-105.2S162.73,42.69,202.15,26.02C242.96,8.75,286.31,0,330.99,0s88.02,8.75,128.84,26.02c39.42,16.67,74.81,40.53,105.2,70.93,30.39,30.39,54.26,65.79,70.93,105.2,17.26,40.81,26.02,84.16,26.02,128.84s-8.75,88.03-26.02,128.84c-16.67,39.42-40.54,74.81-70.93,105.2-30.39,30.39-65.79,54.26-105.2,70.93-40.81,17.26-84.16,26.02-128.84,26.02Z"/><circle class="cls-2" cx="330.99" cy="330.99" r="318.09"/><g><g><path class="cls-1" d="M84.37,255.34l4.81,14.02c-4.4,2.58-7.3,7.16-8.31,14.35-1.54,10.97,5.04,19.7,15.46,21.16,9.96,1.39,19.63-5.24,21.17-16.21,.94-6.73-.43-12.38-3.1-16.13l-6.09-.85-2.67,19.09-11.62-1.63,4.55-32.46,23.24,3.25c.86,.59,12.38,12.26,9.81,30.61-2.91,20.75-20.36,31.93-37.23,29.57-17.43-2.44-30.45-18.84-27.69-38.57,1.69-12.08,8.5-21.09,17.68-26.2Z"/><path class="cls-1" d="M143.93,175.87c15.67,8.98,21.12,29.06,12.19,44.65-9.03,15.75-29.01,21.04-44.68,12.06-15.59-8.93-21.22-28.89-12.19-44.65,8.93-15.59,29.09-21,44.68-12.06Zm-25.55,44.59c8.97,5.14,20.32,1.99,25.46-6.98,5.05-8.81,2.02-20.2-6.95-25.33-8.89-5.09-20.24-1.94-25.29,6.87-5.14,8.97-2.11,20.36,6.77,25.45Z"/><path class="cls-1" d="M211.36,116.7c11.19,14.18,8.75,34.84-5.36,45.97-14.25,11.24-34.77,8.69-45.95-5.49-11.13-14.11-8.89-34.72,5.36-45.97,14.11-11.13,34.82-8.62,45.95,5.49Zm-40.35,31.83c6.4,8.11,18.11,9.43,26.22,3.03,7.97-6.28,9.41-17.98,3.01-26.09-6.34-8.04-18.05-9.36-26.02-3.07-8.11,6.4-9.56,18.09-3.22,26.14Z"/><path class="cls-1" d="M296.12,86.75c5.2,17.69-4.18,34.32-23.12,39.88l-26.89,7.9-17.82-60.66,26.86-7.99c19.98-5.97,35.82,3.35,40.97,20.86Zm-39.35,29.9l12.24-3.59c10.18-2.99,15.27-11.76,12.28-21.95-3.2-10.9-11.79-14.68-22.15-11.64l-12.24,3.6,9.87,33.59Z"/><path class="cls-1" d="M363.5,106.3l32.67,6.11-2.6,13.91-47.68-8.92,11.64-62.23,15.01,2.81-9.04,48.32Z"/><path class="cls-1" d="M471.96,130.17c-10.2,18.29-27.92,22.91-43.37,14.3-15.69-8.75-20.18-25.75-9.97-44.05l15.01-26.91,13.34,7.44-15.01,26.91c-5.94,10.65-4.92,19.53,3.53,24.25,8.29,4.63,17.04,1.19,22.98-9.47l15.01-26.91,13.5,7.53-15.01,26.91Z"/><path class="cls-1" d="M519.82,207.06c-10.94,1.66-23.02-2.02-31.54-12.37-12.61-15.31-10.58-35.68,3.87-47.58,13.58-11.19,34.11-9.4,46.72,5.9,8.58,10.42,10.45,22.64,6.73,33.06l-14.05-5.19c2.56-5.97,1.78-12.92-3.31-19.1-7.05-8.55-18.21-9.36-26.26-2.73-7.76,6.39-9.67,17.98-2.63,26.53,4.97,6.04,11.73,7.95,18,6.76l2.48,14.72Z"/><path class="cls-1" d="M562.65,255.71l-28.08,36.6-5.97-18.91,19.73-24.39-14.64-6.8-13.58,4.29-4.6-14.56,60.37-19.07,4.6,14.56-26.54,8.38,33.84,14.7,5.78,18.29-30.89-13.09Z"/><path class="cls-1" d="M541.78,322.03c-4.84,.18-9.09-3.75-9.28-8.87-.18-4.84,3.75-9.18,8.59-9.37,5.12-.2,9.46,3.83,9.65,8.67,.19,5.12-3.84,9.37-8.95,9.57Zm13.22-2.74l-.52-13.68,42.11-2.54,.59,15.44-42.18,.77Z"/></g><g><path class="cls-1" d="M577.61,406.63l-4.8-14.02c4.4-2.58,7.3-7.16,8.31-14.35,1.54-10.97-5.04-19.7-15.46-21.16-9.96-1.39-19.63,5.24-21.17,16.21-.94,6.73,.43,12.38,3.1,16.13l6.09,.85,2.67-19.09,11.62,1.63-4.55,32.46-23.24-3.25c-.86-.59-12.38-12.26-9.81-30.61,2.91-20.75,20.36-31.93,37.23-29.57,17.43,2.44,30.45,18.84,27.69,38.57-1.69,12.08-8.5,21.09-17.68,26.2Z"/><path class="cls-1" d="M518.05,486.1c-15.67-8.98-21.12-29.06-12.19-44.65,9.03-15.75,29.01-21.04,44.68-12.06,15.59,8.93,21.22,28.89,12.19,44.65-8.93,15.59-29.09,21-44.68,12.06Zm25.55-44.59c-8.97-5.14-20.32-1.99-25.46,6.98-5.04,8.81-2.02,20.2,6.95,25.33,8.89,5.09,20.24,1.94,25.29-6.87,5.14-8.97,2.11-20.36-6.77-25.45Z"/><path class="cls-1" d="M450.62,545.28c-11.19-14.18-8.75-34.84,5.36-45.97,14.25-11.24,34.77-8.69,45.95,5.49,11.13,14.11,8.89,34.72-5.36,45.97-14.11,11.13-34.82,8.62-45.95-5.49Zm40.35-31.83c-6.4-8.11-18.11-9.43-26.22-3.03-7.97,6.28-9.41,17.98-3.01,26.09,6.34,8.04,18.05,9.36,26.02,3.07,8.11-6.4,9.56-18.09,3.22-26.14Z"/><path class="cls-1" d="M365.85,575.23c-5.2-17.69,4.18-34.32,23.12-39.88l26.89-7.9,17.82,60.66-26.86,7.99c-19.98,5.97-35.82-3.35-40.97-20.86Zm39.35-29.9l-12.24,3.6c-10.18,2.99-15.27,11.76-12.28,21.95,3.2,10.9,11.79,14.68,22.15,11.64l12.24-3.59-9.87-33.59Z"/><path class="cls-1" d="M298.48,555.68l-32.67-6.11,2.6-13.91,47.68,8.92-11.64,62.23-15.01-2.81,9.04-48.32Z"/><path class="cls-1" d="M190.02,531.8c10.2-18.29,27.92-22.91,43.37-14.3,15.69,8.75,20.18,25.75,9.97,44.05l-15.01,26.91-13.33-7.44,15.01-26.91c5.94-10.65,4.92-19.53-3.53-24.25-8.29-4.63-17.03-1.19-22.98,9.47l-15.01,26.91-13.5-7.53,15.01-26.91Z"/><path class="cls-1" d="M142.15,454.91c10.94-1.66,23.02,2.02,31.54,12.37,12.61,15.31,10.58,35.68-3.87,47.58-13.58,11.19-34.11,9.4-46.72-5.9-8.58-10.42-10.45-22.64-6.73-33.06l14.05,5.19c-2.56,5.97-1.78,12.92,3.31,19.1,7.05,8.55,18.21,9.36,26.26,2.73,7.76-6.39,9.67-17.98,2.63-26.53-4.97-6.04-11.73-7.95-18-6.76l-2.48-14.72Z"/><path class="cls-1" d="M99.33,406.26l28.08-36.6,5.97,18.91-19.73,24.39,14.64,6.8,13.58-4.29,4.6,14.56-60.37,19.07-4.6-14.56,26.54-8.38-33.84-14.7-5.78-18.29,30.89,13.09Z"/><path class="cls-1" d="M106.98,342.68l.52,13.68-42.11,2.54-.59-15.44,42.18-.77Zm13.22-2.74c4.84-.18,9.09,3.75,9.28,8.87,.18,4.84-3.75,9.18-8.59,9.37-5.12,.2-9.46-3.83-9.65-8.67-.2-5.12,3.83-9.37,8.95-9.57Z"/></g></g><polygon class="cls-3" points="496.96 330.99 384.13 340.43 486.97 387.77 377.76 357.93 458.11 437.69 365.65 372.34 414.02 474.71 349.45 381.72 359.75 494.46 330.99 384.94 302.23 494.46 312.53 381.72 247.95 474.71 296.33 372.34 203.86 437.69 284.22 357.93 175 387.77 277.84 340.43 165.02 330.99 277.84 321.55 175 274.21 284.22 304.05 203.87 224.28 296.33 289.63 247.95 187.26 312.53 280.26 302.23 167.51 330.99 277.03 359.75 167.51 349.45 280.26 414.02 187.26 365.65 289.63 458.11 224.28 377.76 304.05 486.97 274.21 384.13 321.55 496.96 330.99"/></g></g></svg>