<?xml version="1.0" encoding="UTF-8"?><svg id="Calque_2" xmlns="http://www.w3.org/2000/svg" viewBox="0 0 648.78 648.78"><defs><style>.cls-1{fill:#fcda20;}.cls-2{fill:#ff008c;}</style></defs><g id="Layer_1"><g><polygon class="cls-1" points="648.78 324.39 520.76 377.05 605.34 486.65 468.1 468.1 486.65 605.34 377.05 520.76 324.39 648.78 271.73 520.76 162.13 605.34 180.68 468.1 43.45 486.65 128.03 377.05 0 324.39 128.03 271.73 43.45 162.13 180.68 180.68 162.13 43.45 271.73 128.03 324.39 0 377.05 128.03 486.65 43.45 468.1 180.68 605.34 162.13 520.76 271.73 648.78 324.39"/><path class="cls-2" d="M324.39,596.23l-44.13-107.3-91.8,70.84,15.54-114.99-114.99,15.54,70.84-91.8-107.3-44.13,107.3-44.13-70.84-91.8,114.99,15.54-15.54-114.99,91.8,70.84,44.13-107.3,44.13,107.3,91.8-70.84-15.54,114.99,114.99-15.54-70.84,91.8,107.3,44.13-107.3,44.13,70.84,91.8-114.99-15.54,15.54,114.99-91.8-70.84-44.13,107.3Zm-42.58-113.09l42.58,103.53,42.58-103.53,88.56,68.34-15-110.94,110.94,15-68.34-88.56,103.53-42.58-103.53-42.58,68.34-88.56-110.94,15,15-110.94-88.56,68.34-42.58-103.53-42.58,103.53-88.56-68.34,15,110.94-110.94-15,68.34,88.56-103.53,42.58,103.53,42.58-68.34,88.56,110.94-15-15,110.94,88.56-68.34Z"/><g><polygon class="cls-2" points="256.82 334.98 242.32 281.53 226.28 281.53 211.87 334.89 199.83 281.53 191.5 281.53 191.5 315.7 203.13 367.25 219.17 367.25 234.32 311.16 249.54 367.25 265.58 367.25 277.22 315.7 277.22 281.53 268.89 281.53 256.82 334.98"/><polygon class="cls-2" points="319.46 281.53 284.56 281.53 284.56 297.45 319.46 297.45 319.46 351.33 284.56 351.33 284.56 367.25 319.46 367.25 335.38 367.25 370.28 367.25 370.28 351.33 335.38 351.33 335.38 297.45 370.28 297.45 370.28 281.53 335.38 281.53 319.46 281.53"/><polygon class="cls-2" points="447.42 281.53 447.42 343.02 393.54 281.53 377.62 281.53 377.62 367.25 393.54 367.25 393.54 305.64 447.42 367.25 463.34 367.25 463.34 281.53 447.42 281.53"/></g><path class="cls-2" d="M445.74,253.92c-19.2,3.11-21.72,5.64-24.84,24.84-3.11-19.2-5.64-21.72-24.84-24.84,19.2-3.11,21.72-5.64,24.84-24.84,3.11,19.2,5.64,21.72,24.84,24.84Z"/><path class="cls-2" d="M253.1,389.61c-15.45,2.51-17.48,4.54-19.99,19.99-2.51-15.45-4.54-17.48-19.99-19.99,15.45-2.51,17.48-4.54,19.99-19.99,2.51,15.45,4.54,17.48,19.99,19.99Z"/><path class="cls-2" d="M214.64,411.72c-5.85,.95-6.62,1.72-7.57,7.57-.95-5.85-1.72-6.62-7.57-7.57,5.85-.95,6.62-1.72,7.57-7.57,.95,5.85,1.72,6.62,7.57,7.57Z"/><path class="cls-2" d="M263.7,424.74c-9.36,1.52-10.59,2.75-12.11,12.11-1.52-9.36-2.75-10.59-12.11-12.11,9.36-1.52,10.59-2.75,12.11-12.11,1.52,9.36,2.75,10.59,12.11,12.11Z"/><path class="cls-2" d="M413.34,215.45c-10.07,1.63-11.4,2.96-13.03,13.03-1.63-10.07-2.96-11.4-13.03-13.03,10.07-1.63,11.4-2.96,13.03-13.03,1.63,10.07,2.96,11.4,13.03,13.03Z"/><path class="cls-2" d="M447.26,225.14c-4.45,.72-5.04,1.31-5.76,5.76-.72-4.45-1.31-5.04-5.76-5.76,4.45-.72,5.04-1.31,5.76-5.76,.72,4.45,1.31,5.04,5.76,5.76Z"/></g></g></svg>