<?xml version="1.0" encoding="UTF-8"?><svg id="Calque_2" xmlns="http://www.w3.org/2000/svg" viewBox="0 0 686.88 566.12"><defs><style>.cls-1{fill:#fffeff;}.cls-2{fill:#3e33ff;}</style></defs><g id="Layer_1"><g><polygon class="cls-2" points="686.88 283.06 611.36 323.28 660.69 393.17 575.02 396.71 592.43 480.6 511.14 452.96 500.32 538.08 430.99 487.37 396.79 566.12 343.44 498.79 290.09 566.12 255.88 487.37 186.56 538.08 175.73 452.96 94.45 480.6 111.86 396.71 26.19 393.16 75.52 323.28 0 283.06 75.52 242.84 26.19 172.95 111.86 169.41 94.45 85.52 175.73 113.16 186.56 28.04 255.89 78.75 290.09 0 343.44 67.33 396.79 0 430.99 78.75 500.32 28.04 511.14 113.16 592.43 85.52 575.02 169.41 660.69 172.96 611.36 242.84 686.88 283.06"/><path class="cls-1" d="M296.63,516.19l-29.9-68.82-60.03,43.91-9.29-73.02-68.41,23.26,14.41-69.4-68.66-2.84,38.85-55.03-58.53-31.17,58.53-31.17-38.85-55.03,68.66-2.84-14.41-69.4,68.41,23.26,9.29-73.02,60.03,43.91,29.89-68.82,46.81,59.08,46.81-59.08,29.9,68.82,60.03-43.91,9.29,73.02,68.41-23.26-14.41,69.4,68.66,2.84-38.85,55.03,58.53,31.17-58.53,31.17,38.85,55.03-68.66,2.84,14.41,69.4-68.41-23.26-9.29,73.02-60.03-43.91-29.89,68.82-46.81-59.08-46.81,59.08Zm-28.45-74.16l29.32,67.5,45.94-57.98,45.94,57.98,29.32-67.5,58.79,43,9.08-71.41,66.7,22.68-14-67.47,66.39-2.75-37.45-53.05,56.26-29.97-56.26-29.97,37.45-53.05-66.39-2.75,14-67.47-66.7,22.67-9.08-71.41-58.79,43-29.32-67.5-45.94,57.98-45.94-57.98-29.32,67.5-58.79-43-9.08,71.41-66.7-22.68,14,67.47-66.39,2.75,37.45,53.05-56.26,29.97,56.26,29.97-37.45,53.05,66.39,2.75-14,67.47,66.7-22.67,9.08,71.41,58.79-43Z"/><g><path class="cls-1" d="M165.01,248.45h34.37l5.67,47.67,19.62-47.67h30.97l5.51,47.67,19.62-47.67h17.19l-32.26,69.72h-33.89l-6-35.34-16.37,35.34h-33.89l-10.54-69.72Z"/><path class="cls-1" d="M344.49,246.66c12.86,0,22.21,2.27,28.05,6.81,6.16,4.76,9.24,12.65,9.24,23.67,0,6.81-1.13,12.95-3.4,18.4-2.27,5.46-5.46,9.97-9.57,13.54-8.21,6.92-20.1,10.38-35.67,10.38-13.29,0-22.81-2.54-28.53-7.62-6.16-5.29-9.24-13.24-9.24-23.83,0-7.02,1.43-13.4,4.3-19.13,2.86-5.73,7-10.48,12.4-14.27,7.89-5.29,18.7-7.94,32.43-7.94Zm-11.03,61.77c2.7,0,5.05-1.51,7.05-4.54,2-3.02,3.59-6.73,4.78-11.11,1.19-4.38,2.08-8.92,2.68-13.62,.59-4.7,.89-8.78,.89-12.24,0-3.02-.3-5.32-.89-6.89-.6-1.57-1.86-2.35-3.81-2.35-2.92,0-5.43,1.57-7.54,4.7-2.11,3.14-3.81,6.87-5.11,11.19-1.3,4.32-2.24,8.76-2.84,13.3-.59,4.54-.89,8.22-.89,11.02,0,7.03,1.89,10.54,5.67,10.54Z"/><path class="cls-1" d="M388.92,248.45h34.37l5.67,47.67,19.62-47.67h30.97l5.51,47.67,19.62-47.67h17.19l-32.26,69.72h-33.89l-6-35.34-16.38,35.34h-33.88l-10.54-69.72Z"/></g></g></g></svg>