<svg width="28" height="28" viewBox="0 0 28 28" fill="none" xmlns="http://www.w3.org/2000/svg">
<path d="M10.6651 21.6861L10.879 20.9672C10.6856 20.9097 10.4772 20.9325 10.3008 21.0304L10.6651 21.6861ZM5.6 24.5L4.85612 24.4044C4.82004 24.685 4.94495 24.962 5.17913 25.1208C5.41331 25.2795 5.71691 25.293 5.96423 25.1556L5.6 24.5ZM6.28589 19.1653L7.02977 19.2609C7.06005 19.0254 6.97701 18.7895 6.80589 18.6248L6.28589 19.1653ZM14 22.9167C20.1277 22.9167 25.25 18.4828 25.25 12.8333H23.75C23.75 17.4932 19.4703 21.4167 14 21.4167V22.9167ZM10.4512 22.4049C11.5682 22.7373 12.7617 22.9167 14 22.9167V21.4167C12.9068 21.4167 11.8574 21.2583 10.879 20.9672L10.4512 22.4049ZM5.96423 25.1556L11.0293 22.3417L10.3008 21.0304L5.23577 23.8444L5.96423 25.1556ZM5.54201 19.0697L4.85612 24.4044L6.34388 24.5956L7.02977 19.2609L5.54201 19.0697ZM2.75 12.8333C2.75 15.502 3.90547 17.9158 5.7659 19.7058L6.80589 18.6248C5.20775 17.0872 4.25 15.0522 4.25 12.8333H2.75ZM14 2.75C7.87228 2.75 2.75 7.18386 2.75 12.8333H4.25C4.25 8.17349 8.52974 4.25 14 4.25V2.75ZM25.25 12.8333C25.25 7.18386 20.1277 2.75 14 2.75V4.25C19.4703 4.25 23.75 8.17349 23.75 12.8333H25.25Z" fill="white"/>
</svg>
