<svg width="28" height="28" viewBox="0 0 28 28" fill="none" xmlns="http://www.w3.org/2000/svg">
<path fill-rule="evenodd" clip-rule="evenodd" d="M13.6499 24.1159C13.8397 24.3293 14.1603 24.3293 14.3501 24.1159C15.767 22.5228 21 16.2497 21 10.5C21 6.63401 17.866 3.5 14 3.5C10.134 3.5 7 6.63401 7 10.5C7 16.2497 12.233 22.5228 13.6499 24.1159Z" stroke="white" stroke-width="1.5"/>
<path fill-rule="evenodd" clip-rule="evenodd" d="M13.9998 12.8334C15.2885 12.8334 16.3332 11.7887 16.3332 10.5001C16.3332 9.21142 15.2885 8.16675 13.9998 8.16675C12.7112 8.16675 11.6665 9.21142 11.6665 10.5001C11.6665 11.7887 12.7112 12.8334 13.9998 12.8334Z" stroke="white" stroke-width="1.5"/>
</svg>
