<svg width="24" height="24" viewBox="0 0 24 24" fill="none" xmlns="http://www.w3.org/2000/svg">
<g id="Property 1=Variant2">
<path id="Stroke 1 Copy" d="M1 18C1 15.75 4 15.75 5.5 14.25C6.25 13.5 4 13.5 4 9.75C4 7.25025 4.99975 6 7 6C9.00025 6 10 7.25025 10 9.75C10 13.5 7.75 13.5 8.5 14.25C10 15.75 13 15.75 13 18" stroke="white" stroke-width="1.5" stroke-linecap="round"/>
<path id="Stroke 1 Copy 2" d="M12 16C12.567 15.6092 12.803 15.571 13.5074 15.2318C14.058 14.9665 14.5893 14.6659 15.0053 14.25C15.7553 13.5 13.5053 13.5 13.5053 9.75C13.5053 7.25025 14.505 6 16.5053 6C18.5055 6 19.5053 7.25025 19.5053 9.75C19.5053 13.5 17.2553 13.5 18.0053 14.25C19.5053 15.75 22.5053 15.75 22.5053 18" stroke="white" stroke-width="1.5" stroke-linecap="round"/>
</g>
</svg>
