<svg width="50" height="50" viewBox="0 0 50 50" fill="none" xmlns="http://www.w3.org/2000/svg">
<path d="M25 3.125C12.9199 3.125 3.125 12.9199 3.125 25C3.125 37.0801 12.9199 46.875 25 46.875C37.0801 46.875 46.875 37.0801 46.875 25C46.875 12.9199 37.0801 3.125 25 3.125ZM25 43.1641C14.9707 43.1641 6.83594 35.0293 6.83594 25C6.83594 20.6543 8.36426 16.6602 10.9131 13.5352L36.4648 39.0869C33.3398 41.6357 29.3457 43.1641 25 43.1641ZM39.0869 36.4648L13.5352 10.9131C16.6602 8.36426 20.6543 6.83594 25 6.83594C35.0293 6.83594 43.1641 14.9707 43.1641 25C43.1641 29.3457 41.6357 33.3398 39.0869 36.4648Z" fill="black"/>
</svg>
