<svg width="24" height="24" viewBox="0 0 24 24" fill="none" xmlns="http://www.w3.org/2000/svg">
<path d="M15.8977 15.3609C16.4649 15.0563 17.1141 14.8828 17.8055 14.8828H17.8079C17.8782 14.8828 17.911 14.7984 17.8594 14.7516C17.1404 14.1063 16.319 13.5851 15.429 13.2094C15.4196 13.2047 15.4102 13.2023 15.4008 13.1977C16.8563 12.1406 17.8032 10.4227 17.8032 8.48438C17.8032 5.27344 15.2063 2.67188 12.0024 2.67188C8.7985 2.67188 6.20397 5.27344 6.20397 8.48438C6.20397 10.4227 7.15084 12.1406 8.60865 13.1977C8.59928 13.2023 8.5899 13.2047 8.58053 13.2094C7.53287 13.6523 6.59303 14.2875 5.78443 15.0984C4.98051 15.9009 4.34048 16.8522 3.90006 17.8992C3.46673 18.9245 3.23287 20.023 3.211 21.1359C3.21037 21.161 3.21476 21.1858 3.2239 21.2091C3.23304 21.2324 3.24675 21.2537 3.26423 21.2716C3.2817 21.2895 3.30258 21.3037 3.32564 21.3134C3.3487 21.3231 3.37347 21.3281 3.3985 21.3281H4.8024C4.90318 21.3281 4.98756 21.2461 4.9899 21.1453C5.03678 19.3359 5.761 17.6414 7.04303 16.357C8.36725 15.0281 10.1297 14.2969 12.0047 14.2969C13.3337 14.2969 14.6087 14.6648 15.7079 15.3539C15.7361 15.3716 15.7685 15.3816 15.8019 15.3829C15.8352 15.3841 15.8682 15.3765 15.8977 15.3609ZM12.0047 12.5156C10.9313 12.5156 9.92115 12.0961 9.15943 11.3344C8.78466 10.9606 8.48755 10.5163 8.28521 10.0272C8.08288 9.53804 7.97933 9.0137 7.98053 8.48438C7.98053 7.40859 8.40006 6.39609 9.15943 5.63437C9.91881 4.87266 10.929 4.45312 12.0047 4.45312C13.0805 4.45312 14.0883 4.87266 14.8501 5.63437C15.2248 6.00818 15.5219 6.45245 15.7243 6.94158C15.9266 7.43071 16.0302 7.95505 16.029 8.48438C16.029 9.56016 15.6094 10.5727 14.8501 11.3344C14.0883 12.0961 13.0782 12.5156 12.0047 12.5156ZM20.6251 18.0938H15.0001C14.8969 18.0938 14.8126 18.1781 14.8126 18.2812V19.5938C14.8126 19.6969 14.8969 19.7812 15.0001 19.7812H20.6251C20.7282 19.7812 20.8126 19.6969 20.8126 19.5938V18.2812C20.8126 18.1781 20.7282 18.0938 20.6251 18.0938Z" fill="black"/>
</svg>
