<svg width="50" height="50" viewBox="0 0 50 50" fill="none" xmlns="http://www.w3.org/2000/svg">
<path d="M21.875 25C21.875 26.7259 23.2741 28.125 25 28.125C26.7259 28.125 28.125 26.7259 28.125 25C28.125 23.2741 26.7259 21.875 25 21.875C23.2741 21.875 21.875 23.2741 21.875 25Z" fill="black"/>
<path d="M34.375 25C34.375 26.7259 35.7741 28.125 37.5 28.125C39.2259 28.125 40.625 26.7259 40.625 25C40.625 23.2741 39.2259 21.875 37.5 21.875C35.7741 21.875 34.375 23.2741 34.375 25Z" fill="black"/>
<path d="M9.375 25C9.375 26.7259 10.7741 28.125 12.5 28.125C14.2259 28.125 15.625 26.7259 15.625 25C15.625 23.2741 14.2259 21.875 12.5 21.875C10.7741 21.875 9.375 23.2741 9.375 25Z" fill="black"/>
</svg>
