<svg width="50" height="50" viewBox="0 0 50 50" fill="none" xmlns="http://www.w3.org/2000/svg">
<path d="M25 3.125C12.9199 3.125 3.125 12.9199 3.125 25C3.125 37.0801 12.9199 46.875 25 46.875C37.0801 46.875 46.875 37.0801 46.875 25C46.875 12.9199 37.0801 3.125 25 3.125ZM25 43.1641C14.9707 43.1641 6.83594 35.0293 6.83594 25C6.83594 14.9707 14.9707 6.83594 25 6.83594C35.0293 6.83594 43.1641 14.9707 43.1641 25C43.1641 35.0293 35.0293 43.1641 25 43.1641Z" fill="black"/>
<path d="M22.6562 33.5938C22.6563 34.2154 22.9032 34.8115 23.3427 35.251C23.7823 35.6906 24.3784 35.9375 25 35.9375C25.6216 35.9375 26.2177 35.6906 26.6573 35.251C27.0968 34.8115 27.3438 34.2154 27.3438 33.5938C27.3438 32.9721 27.0968 32.376 26.6573 31.9365C26.2177 31.4969 25.6216 31.25 25 31.25C24.3784 31.25 23.7823 31.4969 23.3427 31.9365C22.9032 32.376 22.6563 32.9721 22.6562 33.5938ZM23.8281 28.125H26.1719C26.3867 28.125 26.5625 27.9492 26.5625 27.7344V14.4531C26.5625 14.2383 26.3867 14.0625 26.1719 14.0625H23.8281C23.6133 14.0625 23.4375 14.2383 23.4375 14.4531V27.7344C23.4375 27.9492 23.6133 28.125 23.8281 28.125Z" fill="black"/>
</svg>
