<svg width="32" height="32" viewBox="0 0 32 32" fill="none" xmlns="http://www.w3.org/2000/svg">
<path d="M16 0C7.16429 0 0 7.16429 0 16C0 24.8357 7.16429 32 16 32C24.8357 32 32 24.8357 32 16C32 7.16429 24.8357 0 16 0ZM16 29.2857C8.66429 29.2857 2.71429 23.3357 2.71429 16C2.71429 8.66429 8.66429 2.71429 16 2.71429C23.3357 2.71429 29.2857 8.66429 29.2857 16C29.2857 23.3357 23.3357 29.2857 16 29.2857Z" fill="white"/>
<path d="M20.3707 8.0279C19.1103 6.9759 17.4466 6.3999 15.6821 6.3999C13.9175 6.3999 12.2538 6.9799 10.9934 8.0279C9.68259 9.1199 8.95996 10.5879 8.95996 12.1599V12.4639C8.95996 12.6399 9.11121 12.7839 9.29607 12.7839H11.3127C11.4976 12.7839 11.6488 12.6399 11.6488 12.4639V12.1599C11.6488 10.3959 13.4596 8.9599 15.6821 8.9599C17.9045 8.9599 19.7153 10.3959 19.7153 12.1599C19.7153 13.4039 18.791 14.5439 17.3584 15.0679C16.4677 15.3919 15.7115 15.9599 15.1695 16.7039C14.6191 17.4639 14.3334 18.3759 14.3334 19.2999V20.1599C14.3334 20.3359 14.4847 20.4799 14.6695 20.4799H16.6862C16.871 20.4799 17.0223 20.3359 17.0223 20.1599V19.2519C17.0244 18.8636 17.1495 18.4849 17.381 18.1652C17.6126 17.8456 17.94 17.5998 18.3205 17.4599C20.7992 16.5519 22.3999 14.4719 22.3999 12.1599C22.4041 10.5879 21.6815 9.1199 20.3707 8.0279ZM14.0015 24.6399C14.0015 25.0642 14.1786 25.4712 14.4937 25.7713C14.8089 26.0713 15.2363 26.2399 15.6821 26.2399C16.1278 26.2399 16.5552 26.0713 16.8704 25.7713C17.1855 25.4712 17.3626 25.0642 17.3626 24.6399C17.3626 24.2156 17.1855 23.8086 16.8704 23.5085C16.5552 23.2085 16.1278 23.0399 15.6821 23.0399C15.2363 23.0399 14.8089 23.2085 14.4937 23.5085C14.1786 23.8086 14.0015 24.2156 14.0015 24.6399Z" fill="white"/>
</svg>
