<svg width="32" height="32" viewBox="0 0 32 32" fill="none" xmlns="http://www.w3.org/2000/svg">
<path d="M28.4879 23.5168C27.4867 22.5148 26.3169 21.697 25.0319 21.1008C26.8439 19.6328 27.9999 17.3928 27.9999 14.8808C27.9999 10.4489 24.3039 6.8129 19.872 6.8809C15.508 6.9489 11.992 10.5049 11.992 14.8808C11.992 17.3928 13.152 19.6328 14.96 21.1008C13.6748 21.6965 12.5049 22.5144 11.504 23.5168C9.32004 25.7048 8.08005 28.5928 8.00005 31.6727C7.99898 31.7154 8.00647 31.7579 8.02207 31.7977C8.03768 31.8374 8.06108 31.8736 8.0909 31.9042C8.12072 31.9348 8.15636 31.9591 8.19571 31.9756C8.23507 31.9922 8.27734 32.0008 8.32005 32.0007H10.56C10.732 32.0007 10.876 31.8647 10.88 31.6927C10.956 29.3728 11.896 27.2008 13.548 25.5528C14.3934 24.7029 15.3989 24.0292 16.5064 23.5705C17.6138 23.1119 18.8013 22.8775 20 22.8808C22.436 22.8808 24.7279 23.8288 26.4519 25.5528C28.0999 27.2008 29.0399 29.3728 29.1199 31.6927C29.1239 31.8647 29.2679 32.0007 29.4399 32.0007H31.6799C31.7226 32.0008 31.7649 31.9922 31.8042 31.9756C31.8436 31.9591 31.8792 31.9348 31.909 31.9042C31.9389 31.8736 31.9623 31.8374 31.9779 31.7977C31.9935 31.7579 32.001 31.7154 31.9999 31.6727C31.9199 28.5928 30.6799 25.7048 28.4879 23.5168ZM20 20.0008C18.632 20.0008 17.344 19.4688 16.38 18.5008C15.8962 18.0209 15.5141 17.4483 15.2564 16.8175C14.9986 16.1866 14.8706 15.5103 14.88 14.8288C14.892 13.5169 15.416 12.2489 16.332 11.3089C17.292 10.3249 18.576 9.77688 19.948 9.76088C21.304 9.74888 22.62 10.2769 23.588 11.2249C24.5799 12.1969 25.1239 13.4969 25.1239 14.8808C25.1239 16.2488 24.5919 17.5328 23.624 18.5008C23.149 18.978 22.5842 19.3563 21.9622 19.6137C21.3401 19.8712 20.6732 20.0028 20 20.0008ZM9.98004 15.9368C9.94404 15.5888 9.92404 15.2368 9.92404 14.8808C9.92404 14.2449 9.98404 13.6249 10.096 13.0209C10.124 12.8769 10.048 12.7289 9.91604 12.6689C9.37204 12.4249 8.87204 12.0889 8.44005 11.6649C7.93101 11.1713 7.53045 10.577 7.26391 9.92001C6.99738 9.26298 6.87074 8.5576 6.89206 7.84889C6.92806 6.5649 7.44405 5.34491 8.34405 4.42491C9.33204 3.41292 10.66 2.86092 12.072 2.87692C13.348 2.88892 14.58 3.38092 15.512 4.25291C15.828 4.54891 16.1 4.87691 16.328 5.22891C16.408 5.35291 16.564 5.40491 16.7 5.35691C17.404 5.11291 18.148 4.94091 18.912 4.86091C19.136 4.83691 19.264 4.59691 19.164 4.39691C17.864 1.82493 15.208 0.0489382 12.136 0.000938544C7.70005 -0.067061 4.00408 3.56892 4.00408 7.99689C4.00408 10.5089 5.16007 12.7489 6.97206 14.2169C5.70006 14.8048 4.52807 15.6168 3.51208 16.6328C1.32009 18.8208 0.0800995 21.7088 0.000100023 24.7928C-0.00096759 24.8355 0.00652047 24.8779 0.0221232 24.9177C0.0377259 24.9575 0.0611275 24.9937 0.0909491 25.0242C0.120771 25.0548 0.156409 25.0791 0.195764 25.0957C0.235119 25.1123 0.277394 25.1208 0.320098 25.1208H2.56408C2.73608 25.1208 2.88008 24.9848 2.88408 24.8128C2.96008 22.4928 3.90008 20.3208 5.55207 18.6728C6.72806 17.4968 8.16805 16.6808 9.74004 16.2848C9.89604 16.2448 10 16.0968 9.98004 15.9368Z" fill="white"/>
</svg>
