<svg width="32" height="34" viewBox="0 0 32 34" fill="none" xmlns="http://www.w3.org/2000/svg">
<path d="M30.4762 26.8909H29.3333V13.7545C29.3333 8.30295 24.3667 3.79795 17.9048 3.04841V1.54545C17.9048 0.691591 17.0524 0 16 0C14.9476 0 14.0952 0.691591 14.0952 1.54545V3.04841C7.63333 3.79795 2.66667 8.30295 2.66667 13.7545V26.8909H1.52381C0.680952 26.8909 0 27.4434 0 28.1273V29.3636C0 29.5336 0.171429 29.6727 0.380952 29.6727H10.6667C10.6667 32.0605 13.0571 34 16 34C18.9429 34 21.3333 32.0605 21.3333 29.6727H31.619C31.8286 29.6727 32 29.5336 32 29.3636V28.1273C32 27.4434 31.319 26.8909 30.4762 26.8909ZM16 31.5273C14.7381 31.5273 13.7143 30.6966 13.7143 29.6727H18.2857C18.2857 30.6966 17.2619 31.5273 16 31.5273ZM6.09524 26.8909V13.7545C6.09524 11.6064 7.12381 9.58955 8.99524 8.07114C10.8667 6.55273 13.3524 5.71818 16 5.71818C18.6476 5.71818 21.1333 6.55273 23.0048 8.07114C24.8762 9.58955 25.9048 11.6064 25.9048 13.7545V26.8909H6.09524Z" fill="white"/>
</svg>
