<svg width="32" height="32" viewBox="0 0 32 32" fill="none" xmlns="http://www.w3.org/2000/svg">
<path d="M29.9379 24.7905C29.204 23.1482 28.139 21.6564 26.8022 20.3982C25.4694 19.1365 23.8906 18.1305 22.153 17.4358C22.1374 17.4284 22.1218 17.4247 22.1063 17.4174C24.5301 15.7634 26.1058 13.0693 26.1058 10.0296C26.1058 4.99413 21.7872 0.914307 16.4572 0.914307C11.1271 0.914307 6.80862 4.99413 6.80862 10.0296C6.80862 13.0693 8.38429 15.7634 10.8081 17.4211C10.7925 17.4284 10.777 17.4321 10.7614 17.4394C9.01845 18.1341 7.45445 19.1302 6.11221 20.4019C4.77662 21.661 3.71175 23.1526 2.97642 24.7942C2.25403 26.4013 1.86443 28.1243 1.82871 29.8701C1.82767 29.9093 1.83496 29.9483 1.85013 29.9848C1.86531 30.0214 1.88807 30.0547 1.91707 30.0827C1.94608 30.1108 1.98074 30.1332 2.01902 30.1484C2.0573 30.1636 2.09842 30.1715 2.13995 30.1714H4.47429C4.64547 30.1714 4.78164 30.0428 4.78553 29.8848C4.86334 27.0473 6.06941 24.3899 8.20143 22.3757C10.4074 20.2917 13.337 19.1449 16.4572 19.1449C19.5774 19.1449 22.507 20.2917 24.7129 22.3757C26.845 24.3899 28.051 27.0473 28.1288 29.8848C28.1327 30.0465 28.2689 30.1714 28.4401 30.1714H30.7744C30.816 30.1715 30.8571 30.1636 30.8953 30.1484C30.9336 30.1332 30.9683 30.1108 30.9973 30.0827C31.0263 30.0547 31.0491 30.0214 31.0642 29.9848C31.0794 29.9483 31.0867 29.9093 31.0857 29.8701C31.0468 28.1132 30.6616 26.404 29.9379 24.7905ZM16.4572 16.3515C14.6714 16.3515 12.9907 15.6936 11.7263 14.499C10.4618 13.3045 9.76544 11.7167 9.76544 10.0296C9.76544 8.34253 10.4618 6.75471 11.7263 5.56016C12.9907 4.36562 14.6714 3.7077 16.4572 3.7077C18.2429 3.7077 19.9237 4.36562 21.1881 5.56016C22.4525 6.75471 23.1489 8.34253 23.1489 10.0296C23.1489 11.7167 22.4525 13.3045 21.1881 14.499C19.9237 15.6936 18.2429 16.3515 16.4572 16.3515Z" fill="white"/>
</svg>
