<?xml version="1.0" encoding="UTF-8"?><svg id="Calque_2" xmlns="http://www.w3.org/2000/svg" viewBox="0 0 447.11 335.58"><defs><style>.cls-1{fill:#00b5f6;}.cls-2{fill:#fff;}.cls-3{fill:#ffab2a;}.cls-4{fill:#dd7128;}.cls-5{fill:#d847fc;}.cls-6{fill:#e24a25;}.cls-7{fill:#588834;}.cls-8{fill:#467bfd;}.cls-9{fill:#7548ff;}</style></defs><g id="Layer_1"><g><rect class="cls-3" width="447.11" height="335.58" rx="36.98" ry="36.98"/><rect class="cls-2" x="7.97" y="7.97" width="431.18" height="319.65" rx="29.01" ry="29.01"/><g><path class="cls-6" d="M111.69,86.53c0,20.22-17.03,30.7-33.22,30.7h-26.67l.09-.28,10.67-24.33v-9.92l-11.14-26.49v-.28h30.79c14.41,0,29.48,6.83,29.48,30.6Zm-12.63,0c0-17.78-10.86-28.36-19.65-28.36h-5.33l-9.83,24.52v10.01l10.2,22.46h4.02c8.89,.09,20.59-13.95,20.59-28.64Z"/><path class="cls-8" d="M179.82,115.26v1.97c-15.54,0-34.25-6.93-16.1-17.13,13.2-7.39,6.08-11.79-6.08-11.7h-26.11v4.4l10.86,24.33v.19h-23.4v-.19l10.95-24.15,.09-10.39-11.42-26.58v-.09h32.85c14.41,0,22.93,4.12,22.93,16.66,0,8.14-4.31,12.35-11.6,14.32,8.8,1.03,12.26,4.96,12.26,12.92,0,14.04-6.36,15.44,4.77,15.44Zm-31.82-28.64c8.7-.09,13.48-7.67,13.48-14.79,0-6.55-4.02-13.66-12.82-13.66h-7.49l-9.55,24.15v4.21l16.38,.09Z"/><path class="cls-3" d="M239.06,82.78l-21.53-24.99h-8.33l-9.92,24.9h-.09v3.65h37.06v1.87h-37.06v4.4h.09l9.83,22.74h8.42l21.53-23.12v24.99h-52.69v-.19l10.95-24.43v-9.92l-10.86-26.67v-.09h52.6v26.86Z"/><path class="cls-7" d="M314.41,117.13v.09h-25.08v-.19l7.3-19.75h-35.1l8.42,19.75v.19h-24.52l25.18-50.73-14.6-10.48,22.65-.09h4.12l11.89,25.92,5.9,10.95,13.85,24.33Zm-16-24.52l-5.43-10.01-20.87-15.07-12.45,25.18,1.12,2.71h36.59l1.03-2.81Z"/><path class="cls-9" d="M383.01,92.61l11.14,24.33v.28h-23.77v-.19l10.67-24.43v-20.59l-22.37,22.27h-.19l-22.27-22.74v21.06l11.14,24.33v.28h-23.77v-.19l10.67-24.43h.09v-23.02l-13.38-13.66h25.92l11.7,38.09,13.66-38.09h24.99l-14.32,14.23v22.46h.09Z"/><path class="cls-1" d="M172.87,239.78c0,28.54-23.51,35.89-59.82,35.89H53.44v-.63l23.93-54.57v-22.67l-27.5-58.98v-.63H115.15c32.32,0,51.42,7.56,51.42,35.68,0,18.68-16.16,32.74-39.67,32.74v.21c25.82,.21,45.97,12.8,45.97,32.95Zm-70.73-96.55l-20.99,54.99v6.93h31.27c18.68,0,27.28-18.47,27.28-32.95s-9.02-28.96-30.85-28.96h-6.72Zm41.35,94.87c0-14.69-8.6-28.75-28.33-28.75h-34v11.12h.21l22.67,50.58h9.02c19.94,.21,30.43-16.79,30.43-32.95Z"/><path class="cls-5" d="M217.78,198.22v22.25l23.93,55.2v.42h-52.47v-.42l24.35-55.2v-22.25l-23.3-59.4v-.63h52.47v.42l-24.98,59.61Z"/><path class="cls-4" d="M396.6,208.72h-34.21v67.16h-4.2v-67.16h-.42c-1.89,48.48-18.68,70.94-39.88,70.94-29.17,0-59.4-42.19-59.4-74.09,0-38.83,37.57-73.46,77.66-73.46,34.63,0,63.18,23.51,48.27,51.63h-.21c-20.15-31.69-93.82-23.09-117.96,2.52-14.06,33.58,10.29,65.06,36.73,65.06,19.52,0,40.51-14.48,53.94-42.61h-34.84v-4.2h74.51v4.2Z"/></g></g></g></svg>