<?xml version="1.0" encoding="UTF-8"?><svg id="Calque_2" xmlns="http://www.w3.org/2000/svg" viewBox="0 0 816.64 476.73"><defs><style>.cls-1{fill:#05c954;}</style></defs><g id="Layer_1"><g><ellipse class="cls-1" cx="408.32" cy="238.36" rx="408.32" ry="238.36"/><path d="M408.32,448.2c-52.82,0-103.99-6.02-152.1-17.9-45.97-11.35-87.1-27.51-122.24-48.02-34.05-19.88-60.56-42.71-78.79-67.87-17.69-24.42-26.66-50-26.66-76.04s8.97-51.63,26.66-76.04c18.22-25.15,44.73-47.99,78.79-67.87,35.14-20.52,76.27-36.67,122.24-48.02,48.1-11.88,99.28-17.9,152.1-17.9s103.99,6.02,152.1,17.9c45.97,11.35,87.1,27.51,122.24,48.02,34.05,19.88,60.56,42.71,78.79,67.87,17.69,24.42,26.66,50,26.66,76.04s-8.97,51.63-26.66,76.04c-18.23,25.15-44.73,47.99-78.79,67.87-35.14,20.52-76.27,36.67-122.24,48.02-48.1,11.88-99.28,17.9-152.1,17.9Zm0-415.37c-52.47,0-103.3,5.98-151.07,17.77-45.57,11.25-86.32,27.26-121.11,47.56-33.54,19.58-59.6,42.01-77.47,66.68-17.15,23.67-25.84,48.41-25.84,73.52s8.7,49.85,25.84,73.52c17.87,24.67,43.94,47.1,77.47,66.68,34.79,20.31,75.53,36.31,121.11,47.56,47.77,11.79,98.59,17.77,151.07,17.77s103.3-5.98,151.07-17.77c45.57-11.25,86.32-27.26,121.11-47.56,33.53-19.58,59.6-42.01,77.47-66.68,17.15-23.67,25.84-48.41,25.84-73.52s-8.7-49.85-25.84-73.52c-17.87-24.67-43.94-47.1-77.47-66.68-34.79-20.31-75.53-36.31-121.11-47.56-47.77-11.79-98.59-17.77-151.07-17.77Z"/><g><path d="M167.63,245.57h28.52c-3.12,15.34-15.7,26.47-30.28,26.47-4.53,0-8.93-1.08-13.06-3.2-.6-.28-1.28-.64-1.88-1l-.36-.24c-.32-.16-.64-.36-1.04-.72-.6-.28-1.16-.76-1.64-1.16-8.13-6.29-12.98-16.5-12.98-27.32,0-18.58,13.9-33.64,30.96-33.64,5.41,0,10.69,1.52,15.34,4.41l.08,.12,.24,.08,.04,.12,.12,.04c7.77,4.97,13.22,13.62,14.74,23.23l-6.33-.12c.2-9.17-3.25-17.02-9.29-21.11-.16-.04-.28-.16-.48-.32-.08-.04-.12-.04-.16-.08-.08-.04-.16-.12-.24-.16l-1.72-.88c-2.2-1-4.57-1.48-7.05-1.48-2.8,0-5.73,.64-8.65,1.92-6.53,2.8-12.26,8.41-16.1,15.74-7.89,14.74-5.93,31.88,4.57,38.97,.12,.08,.28,.16,.44,.28,.64,.44,1.36,.84,2.16,1.16,2.2,1,4.57,1.48,7.05,1.48,2.84,0,5.73-.64,8.65-1.92,6.45-2.76,12.18-8.33,16.1-15.66,.4-.72,.84-1.68,1.24-2.6h-18.98v-2.4Z"/><path d="M272.6,238.45c0,18.53-13.97,33.64-31.19,33.64-4.6,0-9-1.06-13.15-3.18-.61-.28-1.22-.61-1.87-1.02-.45-.24-.9-.53-1.43-.94-.49-.24-.98-.61-1.63-1.22-8.19-6.23-13.07-16.41-13.07-27.28,0-18.57,13.97-33.68,31.15-33.68,5.45,0,10.79,1.55,15.43,4.44l.16,.12h.04c.08,.04,.12,.08,.16,.12l.08,.04,.04,.04c9.45,6.02,15.27,17.06,15.28,28.91Zm-16.5-26.06l-.49-.32-.12-.12h-.08c-.08-.08-.2-.12-.24-.16l-1.67-.9c-2.11-.94-4.44-1.43-6.92-1.43-2.77,0-5.62,.65-8.47,1.88-6.4,2.77-11.97,8.19-15.76,15.31-7.61,14.13-5.62,31.11,4.4,37.83l.49,.36c.73,.45,1.43,.82,2.12,1.14,2.15,.94,4.48,1.43,6.92,1.43,2.77,0,5.62-.61,8.47-1.87,6.27-2.65,11.89-8.07,15.76-15.23,7.7-14.45,5.74-31.11-4.4-37.91Z"/><path d="M349.11,238.45c0,18.53-13.97,33.64-31.19,33.64-4.6,0-9-1.06-13.15-3.18-.61-.28-1.22-.61-1.87-1.02-.45-.24-.9-.53-1.43-.94-.49-.24-.98-.61-1.63-1.22-8.19-6.23-13.07-16.41-13.07-27.28,0-18.57,13.97-33.68,31.15-33.68,5.45,0,10.79,1.55,15.43,4.44l.16,.12h.04c.08,.04,.12,.08,.16,.12l.08,.04,.04,.04c9.45,6.02,15.27,17.06,15.28,28.91Zm-16.5-26.06l-.49-.32-.12-.12h-.08c-.08-.08-.2-.12-.24-.16l-1.67-.9c-2.11-.94-4.44-1.43-6.92-1.43-2.77,0-5.62,.65-8.47,1.88-6.4,2.77-11.97,8.19-15.76,15.31-7.61,14.13-5.62,31.11,4.4,37.83l.49,.36c.73,.45,1.43,.82,2.12,1.14,2.15,.94,4.48,1.43,6.92,1.43,2.77,0,5.62-.61,8.47-1.87,6.27-2.65,11.89-8.07,15.76-15.23,7.7-14.45,5.74-31.11-4.4-37.91Z"/><path d="M419.44,240.43c0,20.67-12.46,31.6-26.75,31.6h-26.88v-67.13s6.01-.12,13.5-.12c28.12,0,40.13,13.02,40.13,35.65Zm-8.73-.16c0-33.68-19.97-33.22-37.88-33.18v62.83h12.19c17.16,0,25.69-14.38,25.7-29.65Z"/><path d="M525.91,240.43c0,20.67-12.46,31.6-26.75,31.6h-26.88v-67.13s6.01-.12,13.5-.12c28.12,0,40.13,13.02,40.13,35.65Zm-8.73-.16c0-33.68-19.97-33.22-37.88-33.18v62.83h12.19c17.16,0,25.69-14.38,25.7-29.65Z"/><path d="M599.45,272.07h-9.29l-9.17-24.39h-31.28l-9.21,24.39h-5.85l27.8-67.41h9.17l27.84,67.41Zm-19.5-27.15l-14.58-38.69-14.62,38.69h29.2Z"/><path d="M659.9,204.64l-26.43,39.25v28.2h-6.53v-28.2l-26.43-39.25h8.49l22.67,36.85,.08,.16,.08-.16,22.75-36.85h5.33Z"/><path d="M673.32,267.91c0-2.3,1.87-4.17,4.17-4.17s4.17,1.87,4.17,4.17-1.87,4.17-4.17,4.17-4.17-1.87-4.17-4.17Zm1.89-12.45l-1.73-50.79h8.25l-1.95,50.79h-4.57Z"/></g></g></g></svg>