<?xml version="1.0" encoding="UTF-8"?><svg id="Calque_2" xmlns="http://www.w3.org/2000/svg" viewBox="0 0 661.45 661.44"><defs><style>.cls-1{fill:#fff;}.cls-2{fill:#ffa625;}.cls-3{fill:#141823;}</style></defs><g id="Layer_1"><g><path class="cls-2" d="M330.72,661.44c-88.34,0-171.39-34.4-233.86-96.87C34.4,502.11,0,419.06,0,330.72S34.4,159.33,96.87,96.87C159.33,34.4,242.38,0,330.72,0s171.39,34.4,233.86,96.87c62.47,62.47,96.87,145.52,96.87,233.86s-34.4,171.39-96.87,233.86c-62.47,62.47-145.52,96.87-233.86,96.87Z"/><circle class="cls-1" cx="330.72" cy="330.72" r="317.49"/><g><path class="cls-3" d="M75.36,408.18c1.37,.94,2.56,2.72,3.57,5.34l6.95,18.09,11.96-4.59-5.51-14.34c-.98-2.56-1.27-4.53-.86-5.92,.41-1.39,1.48-2.42,3.22-3.09,1.74-.67,3.23-.62,4.48,.13,1.25,.75,2.37,2.41,3.35,4.97l5.51,14.34,11.91-4.58-6.95-18.09c-1.01-2.62-1.31-4.74-.92-6.36,.39-1.62,1.43-2.75,3.1-3.39,1.68-.64,3.2-.49,4.55,.45,1.36,.95,2.54,2.73,3.55,5.35l9.39,24.45c1.01,2.62,1.09,4.89,.24,6.82-.85,1.93-2.59,3.4-5.24,4.42l-38.39,14.75c-2.65,1.02-4.93,1.09-6.85,.23-1.92-.87-3.38-2.61-4.39-5.23l-9.39-24.45c-1.99-5.18-1.28-8.42,2.14-9.73,1.68-.64,3.2-.5,4.58,.44Z"/><path class="cls-3" d="M113.72,360.08c-1.1,1.91-2.89,3.39-5.36,4.44l-40.43,17c-.73,.32-1.61,.53-2.65,.63-2.13,.2-3.88-.34-5.23-1.63-1.35-1.28-2.13-3.02-2.34-5.22-.16-1.69,0-3.08,.47-4.15,.47-1.07,1.23-1.96,2.29-2.66,1.06-.7,2.49-1.37,4.3-2.01l41.65-15.12,.21,2.26-43.74-7.28c-1.89-.27-3.42-.65-4.59-1.14-1.17-.49-2.08-1.22-2.74-2.19-.66-.97-1.07-2.3-1.23-3.99-.2-2.2,.24-4.04,1.34-5.54,1.1-1.49,2.73-2.34,4.89-2.54,1.1-.1,1.99-.07,2.67,.08l42.88,9.31c2.62,.58,4.64,1.7,6.08,3.38,1.44,1.67,2.29,3.98,2.57,6.93l.2,2.16c.27,2.95-.14,5.38-1.25,7.28Z"/><path class="cls-3" d="M72.75,263.92c.69,1.52,.78,3.66,.28,6.42l-3.46,19.07,12.6,2.29,2.74-15.12c.49-2.7,1.27-4.53,2.34-5.51,1.07-.97,2.52-1.3,4.35-.96,1.83,.33,3.08,1.14,3.76,2.44,.68,1.29,.77,3.29,.28,5.98l-2.74,15.12,12.56,2.28,3.46-19.07c.5-2.76,1.34-4.73,2.51-5.91,1.17-1.18,2.65-1.61,4.41-1.29,1.77,.32,2.99,1.24,3.66,2.75,.67,1.51,.75,3.65,.25,6.41l-4.68,25.77c-.5,2.76-1.61,4.74-3.34,5.95-1.72,1.21-3.98,1.56-6.77,1.05l-40.46-7.34c-2.79-.51-4.78-1.63-5.97-3.37-1.19-1.74-1.53-3.99-1.03-6.75l4.68-25.77c.99-5.46,3.28-7.86,6.88-7.21,1.77,.32,2.99,1.24,3.68,2.76Z"/><path class="cls-3" d="M112.15,233.16l13.21,6.46c2.52,1.23,4.15,2.77,4.89,4.63,.74,1.85,.56,3.91-.55,6.18-1.09,2.24-2.6,3.62-4.51,4.16-1.91,.54-4.13,.19-6.65-1.04l-37.71-18.43c-2.55-1.25-4.16-2.86-4.84-4.84-.68-1.98-.4-4.23,.83-6.75l7.66-15.67c2.45-5.01,5.63-8.86,9.54-11.54,3.91-2.68,8.88-2.55,14.91,.39,4.19,2.05,7.04,4.74,8.55,8.07,1.51,3.33,2.08,6.69,1.71,10.07-.37,3.38-1.18,6.34-2.42,8.89l-4.61,9.43Zm-9.9-4.84l3.4-6.96c.79-1.61,1.21-3.07,1.27-4.38,.06-1.3-.25-2.46-.94-3.46-.69-1-1.74-1.85-3.15-2.54-2.1-1.02-3.94-1.19-5.52-.49-1.59,.7-2.98,2.28-4.19,4.74l-3.4,6.96,12.53,6.12Zm38.83-3.12c-.99,.74-2.13,1.19-3.39,1.34-1.27,.15-2.89,.13-4.86-.06l-19.63-1.6,3.15-14.19,20.79,1.06c1.83,.12,3.3,.46,4.41,1,1.64,.8,2.67,1.99,3.08,3.56,.41,1.57,.12,3.36-.86,5.37-.79,1.61-1.68,2.79-2.67,3.53Z"/><path class="cls-3" d="M150.48,176.5c-1.22,.49-2.5,.73-3.83,.71-1.33-.02-2.98-.21-4.94-.57l-24.08-4.73c-.84-.15-1.66-.43-2.49-.83-.83-.4-1.57-.89-2.23-1.48-.82-.73-1.35-1.63-1.58-2.7-.23-1.07-.14-2.21,.25-3.41,.4-1.21,1.11-2.39,2.14-3.54,1.19-1.34,2.52-2.09,3.97-2.26,1.45-.16,3.49,.13,6.13,.87l21.6,5.95-1.6,1.8-8.44-20.94c-.99-2.4-1.45-4.38-1.38-5.95,.07-1.57,.68-3.01,1.86-4.33,1.53-1.72,3.14-2.71,4.82-2.99,1.68-.28,3.14,.14,4.39,1.25,.64,.57,1.21,1.26,1.71,2.09,.51,.83,.88,1.65,1.13,2.46l7.48,23.37c.58,1.91,.96,3.52,1.13,4.84,.18,1.32,.09,2.61-.26,3.88-.35,1.27-1.07,2.52-2.16,3.74l-.16,.18c-1.09,1.22-2.25,2.08-3.47,2.58Zm13.51,13.86c-1.98,0-4.01-.94-6.11-2.81l-15.53-13.83,10.28-11.54,15.53,13.83c2.09,1.87,3.26,3.78,3.48,5.76s-.5,3.9-2.18,5.78c-1.68,1.88-3.5,2.82-5.48,2.81Z"/><path class="cls-3" d="M260.01,66.81c4.5,.03,8.97,1.64,13.4,4.82,4.43,3.18,7.83,8.68,10.2,16.49,2.38,7.81,2.61,14.27,.71,19.38-1.9,5.11-4.72,8.93-8.44,11.46-3.72,2.53-7.71,4.45-11.96,5.74l-10.94,3.33c-2.71,.83-4.99,.75-6.84-.24-1.85-.99-3.19-2.83-4.01-5.55l-11.97-39.34c-.83-2.71-.75-4.99,.24-6.84,.99-1.85,2.84-3.18,5.55-4.01l10.94-3.33c4.25-1.29,8.63-1.93,13.13-1.9Zm7.23,43.41c1.61-1.79,2.56-4.14,2.85-7.04,.29-2.9-.2-6.41-1.44-10.51-1.25-4.1-2.8-7.28-4.65-9.53-1.86-2.25-3.95-3.67-6.29-4.26-2.34-.59-4.89-.46-7.67,.38l-4.43,1.35,10.62,34.91,4.43-1.35c2.77-.84,4.97-2.16,6.58-3.95Z"/><path class="cls-3" d="M301.9,113.86c-1.29-1.17-1.96-2.79-2.01-4.87-.02-.91,.1-1.88,.36-2.89l11.52-42.64c.66-2.57,1.74-4.49,3.22-5.77,1.48-1.28,3.42-1.95,5.81-2.01l7.75-.18c2.39-.06,4.35,.52,5.88,1.73,1.52,1.21,2.68,3.08,3.47,5.62l13.53,42.05c.31,1,.47,1.96,.49,2.87,.05,2.11-.54,3.77-1.77,4.98-1.23,1.21-2.92,1.84-5.06,1.89-2.49,.06-4.38-.51-5.67-1.71-1.29-1.2-2.3-3.14-3.02-5.84l-10.93-38.14c-.76-2.91-1.17-5.49-1.22-7.73l1.09-.03c.05,2.24-.23,4.83-.86,7.77l-9.11,38.61c-.57,2.72-1.47,4.72-2.72,5.97-1.25,1.26-3.12,1.92-5.6,1.98-2.14,.05-3.86-.51-5.15-1.67Zm13.92-23.36l19.56-.46,3.05,10.94-24.76,.59,2.15-11.07Z"/><path class="cls-3" d="M385.98,99.81c-1-.86-1.8-1.88-2.38-3.08-.59-1.19-1.18-2.74-1.76-4.65l-6.84-23.57c-.25-.81-.38-1.68-.41-2.59-.03-.92,.07-1.8,.29-2.66,.27-1.07,.83-1.95,1.68-2.64,.84-.69,1.89-1.14,3.15-1.34,1.25-.2,2.63-.11,4.13,.28,1.74,.45,3.01,1.28,3.83,2.49,.81,1.22,1.49,3.16,2.04,5.84l4.63,21.93-2.33-.6,14.73-17.11c1.68-1.98,3.23-3.3,4.65-3.96,1.42-.66,2.99-.77,4.7-.33,2.23,.57,3.85,1.54,4.87,2.91,1.02,1.37,1.32,2.86,.9,4.48-.21,.82-.57,1.65-1.08,2.48-.51,.83-1.06,1.54-1.67,2.13l-17.33,17.37c-1.43,1.39-2.69,2.47-3.78,3.23-1.09,.76-2.28,1.28-3.57,1.55-1.29,.27-2.73,.2-4.31-.2l-.23-.06c-1.59-.41-2.88-1.04-3.88-1.9Zm-6.12,18.36c-.9-1.76-1-4-.3-6.71l5.16-20.15,14.97,3.84-5.16,20.15c-.7,2.72-1.87,4.63-3.52,5.73-1.65,1.11-3.7,1.35-6.14,.72-2.44-.63-4.11-1.82-5.01-3.58Z"/><path class="cls-3" d="M473.46,164.15c-.26-1.6,.26-3.02,1.54-4.28,1.29-1.25,2.73-1.74,4.33-1.45,1.6,.29,3.31,1.37,5.14,3.24l20.13,20.65c1.83,1.87,2.86,3.61,3.11,5.22,.25,1.61-.27,3.04-1.56,4.29-1.29,1.25-2.73,1.73-4.33,1.42-1.6-.31-3.3-1.39-5.11-3.24l-20.13-20.64c-1.83-1.87-2.87-3.61-3.13-5.2Zm42.73-23.51l10.3,10.56-27.38,26.7-10.3-10.56,27.38-26.7Zm-8.7-9.67c-.25-1.61,.27-3.04,1.56-4.29,1.29-1.25,2.72-1.73,4.31-1.43,1.59,.3,3.3,1.38,5.12,3.26l20.13,20.65c1.8,1.85,2.84,3.58,3.11,5.19,.27,1.61-.24,3.04-1.53,4.29-1.29,1.25-2.73,1.74-4.33,1.45-1.6-.29-3.31-1.37-5.14-3.24l-20.13-20.65c-1.83-1.87-2.86-3.61-3.11-5.22Z"/><path class="cls-3" d="M516.68,216.6c-.77-3.55-.88-6.76-.33-9.64,.53-3.63,2.16-6.18,4.87-7.66,.89-.48,1.83-.75,2.85-.8,1.01-.05,2.01,.2,2.99,.74,.98,.54,1.79,1.41,2.44,2.6,.78,1.44,1.18,2.87,1.18,4.28,0,1.42-.22,3-.67,4.75-.64,2.18-.94,4.19-.91,6.04,.04,1.85,.64,3.83,1.8,5.96,.91,1.66,1.91,2.99,3.01,3.99,1.1,1,2.24,1.62,3.42,1.88,1.18,.25,2.32,.08,3.43-.52,1.13-.62,1.85-1.5,2.16-2.66,.3-1.15,.32-2.6,.06-4.34-.27-1.74-.84-4.14-1.73-7.22-1.39-4.91-2.04-9.21-1.96-12.88,.08-3.67,.84-6.77,2.28-9.29,1.44-2.53,3.54-4.54,6.31-6.05,2.85-1.55,5.88-1.98,9.1-1.28s6.34,2.4,9.35,5.1c3.01,2.7,5.66,6.14,7.94,10.31,1.7,3.13,2.93,6.32,3.68,9.57,.75,3.25,.89,6.23,.43,8.92-.43,3.5-1.88,5.93-4.37,7.28-1.6,.88-3.15,1.08-4.62,.61-1.48-.47-2.65-1.51-3.53-3.11-.77-1.41-1.12-2.82-1.06-4.21,.06-1.4,.32-2.9,.77-4.51,.51-1.43,.71-2.92,.58-4.46-.13-1.55-.69-3.25-1.71-5.1-.81-1.49-1.74-2.74-2.79-3.73-1.04-.99-2.1-1.64-3.16-1.94-1.06-.3-2.02-.22-2.88,.25-1,.54-1.66,1.42-1.98,2.64-.32,1.22-.37,2.8-.13,4.75,.24,1.95,.74,4.35,1.51,7.2,1.17,4.46,1.85,8.41,2.02,11.85,.17,3.44-.34,6.5-1.54,9.16-1.2,2.67-3.3,4.81-6.28,6.44-3.21,1.75-6.52,2.36-9.93,1.84-3.41-.53-6.69-2.12-9.83-4.79-3.14-2.67-5.93-6.23-8.36-10.68-2.17-3.98-3.64-7.75-4.41-11.3Z"/><path class="cls-3" d="M550.89,329.6c2.28-4.23,5.73-7.57,10.34-10.02,4.61-2.45,10.36-3.51,17.26-3.18,6.89,.33,12.51,1.93,16.86,4.8,4.34,2.87,7.45,6.51,9.33,10.9,1.87,4.4,2.69,9.16,2.45,14.29-.17,3.56-.77,6.75-1.8,9.57-1.03,2.82-2.56,5.27-4.58,7.35-1.07,1.21-2.18,2.09-3.34,2.63-1.16,.54-2.31,.79-3.44,.74-1.17-.06-2.2-.42-3.09-1.09-.9-.67-1.6-1.54-2.1-2.58-.5-1.05-.73-2.12-.68-3.23,.05-1.13,.37-2.24,.94-3.32,.57-1.08,1.32-1.99,2.24-2.73,1.32-1.14,2.41-2.32,3.29-3.56,.88-1.24,1.36-2.64,1.43-4.21,.11-2.36-.42-4.56-1.6-6.61-1.18-2.04-3.15-3.75-5.91-5.11-2.76-1.36-6.33-2.15-10.7-2.35-4.6-.22-8.32,.23-11.18,1.34-2.86,1.11-4.94,2.63-6.23,4.56-1.29,1.93-1.99,4.1-2.11,6.53-.15,3.12,.94,5.37,3.25,6.76,2.32,1.39,5.74,2.19,10.27,2.4l-3.27,3.06,.38-7.98c.1-2.14,.6-3.78,1.51-4.92,.91-1.14,2.26-1.67,4.05-1.58,1.83,.09,3.12,.72,3.88,1.91,.76,1.19,1.08,3.1,.96,5.75l-.55,11.66c-.13,2.77-.88,4.75-2.25,5.95-1.37,1.2-3.37,1.73-6.02,1.61-5.23-.25-9.62-1.46-13.2-3.63-3.57-2.17-6.22-5.12-7.93-8.85-1.72-3.73-2.46-8-2.23-12.81,.24-5.13,1.51-9.81,3.79-14.04Z"/><path class="cls-3" d="M543.35,388.48c3.19-3.19,7.32-5.28,12.39-6.28,5.07-1,10.93-.39,17.6,1.84,6.66,2.23,11.72,5.26,15.15,9.1,3.44,3.84,5.47,7.99,6.11,12.45,.63,4.46,.21,8.92-1.28,13.38-1.48,4.42-3.81,8.23-7,11.42-3.19,3.19-7.31,5.27-12.35,6.24-5.04,.97-10.9,.35-17.56-1.88-6.67-2.23-11.73-5.25-15.19-9.06-3.46-3.81-5.51-7.95-6.14-12.42-.64-4.47-.21-8.91,1.26-13.33,1.49-4.45,3.83-8.27,7.02-11.46Zm3.65,21.15c.86,2.01,2.49,3.9,4.89,5.65,2.41,1.75,5.57,3.28,9.48,4.59,3.88,1.3,7.32,1.97,10.29,2.02,2.97,.05,5.41-.48,7.3-1.57,1.89-1.1,3.2-2.7,3.9-4.83,.72-2.15,.65-4.24-.2-6.27-.85-2.03-2.48-3.92-4.89-5.67-2.41-1.75-5.55-3.27-9.44-4.57-3.92-1.31-7.36-1.98-10.34-2.03-2.98-.05-5.41,.49-7.31,1.6-1.9,1.11-3.21,2.74-3.93,4.89-.71,2.12-.64,4.19,.22,6.2Z"/><path class="cls-3" d="M520,443.7c3.93-2.21,8.48-3.1,13.63-2.69,5.15,.41,10.63,2.59,16.45,6.54,5.81,3.95,9.86,8.23,12.12,12.86,2.27,4.62,3.11,9.17,2.51,13.64-.6,4.47-2.21,8.65-4.85,12.53-2.62,3.86-5.9,6.89-9.83,9.1-3.93,2.2-8.46,3.09-13.58,2.67-5.12-.43-10.58-2.61-16.4-6.56-5.82-3.95-9.87-8.22-12.17-12.83-2.3-4.61-3.15-9.15-2.55-13.62,.6-4.47,2.21-8.63,4.82-12.49,2.64-3.89,5.92-6.93,9.86-9.13Zm-2.21,21.35c.28,2.17,1.34,4.42,3.18,6.76,1.84,2.34,4.47,4.66,7.89,6.98,3.39,2.3,6.51,3.88,9.36,4.73,2.85,.85,5.34,1,7.46,.46,2.12-.54,3.81-1.74,5.07-3.59,1.27-1.88,1.78-3.91,1.51-6.09-.27-2.18-1.33-4.44-3.17-6.78-1.84-2.34-4.46-4.65-7.85-6.96-3.42-2.32-6.55-3.9-9.4-4.75-2.85-.85-5.34-1-7.47-.44-2.13,.55-3.83,1.77-5.1,3.65-1.26,1.85-1.75,3.86-1.47,6.03Z"/><path class="cls-3" d="M500.87,546.47c-4.15,1.76-8.89,2.05-14.21,.88-5.33-1.17-10.62-4.87-15.89-11.1-5.27-6.23-8.04-12.07-8.32-17.51-.27-5.45,.8-10.07,3.22-13.87,2.42-3.8,5.33-7.14,8.72-10.01l8.73-7.39c2.17-1.83,4.29-2.66,6.38-2.49,2.09,.17,4.05,1.34,5.88,3.51l26.56,31.4c1.83,2.17,2.66,4.29,2.49,6.38-.17,2.09-1.34,4.05-3.51,5.88l-8.73,7.39c-3.39,2.87-7.16,5.18-11.31,6.94Zm-23.81-37c-.77,2.28-.71,4.81,.17,7.59,.89,2.78,2.71,5.81,5.48,9.08,2.77,3.27,5.45,5.57,8.04,6.91,2.6,1.33,5.08,1.81,7.46,1.43,2.38-.38,4.68-1.51,6.89-3.38l3.54-2.99-23.57-27.86-3.54,2.99c-2.21,1.87-3.71,3.95-4.48,6.23Z"/><path class="cls-3" d="M364.09,603.4c-4.46-.67-8.65-2.89-12.58-6.67-3.93-3.78-6.52-9.7-7.76-17.77-1.25-8.07-.56-14.49,2.05-19.28,2.61-4.79,5.94-8.17,9.98-10.15,4.05-1.98,8.27-3.31,12.66-3.99l11.31-1.75c2.8-.43,5.05-.03,6.74,1.21,1.69,1.24,2.75,3.26,3.18,6.06l6.27,40.64c.43,2.8,.03,5.05-1.21,6.74-1.24,1.69-3.26,2.75-6.06,3.18l-11.31,1.75c-4.39,.68-8.81,.68-13.27,.02Zm-1-43.99c-1.85,1.54-3.12,3.73-3.82,6.57-.69,2.83-.72,6.37-.06,10.6,.65,4.24,1.74,7.6,3.26,10.09,1.52,2.49,3.39,4.2,5.62,5.11,2.23,.91,4.78,1.15,7.64,.71l4.58-.71-5.57-36.06-4.58,.71c-2.86,.44-5.22,1.44-7.07,2.98Z"/><path class="cls-3" d="M329.13,550.94c1.11,1.34,1.54,3.04,1.3,5.1-.11,.91-.36,1.84-.76,2.81l-17.44,40.58c-1.02,2.45-2.36,4.2-4,5.26-1.65,1.06-3.66,1.45-6.04,1.16l-7.7-.91c-2.38-.28-4.24-1.13-5.58-2.54-1.34-1.41-2.22-3.43-2.64-6.05l-7.44-43.54c-.16-1.04-.19-2.01-.08-2.91,.25-2.1,1.07-3.66,2.46-4.68,1.39-1.02,3.15-1.41,5.28-1.16,2.47,.29,4.26,1.13,5.37,2.49,1.11,1.37,1.83,3.44,2.17,6.21l5.42,39.3c.34,2.99,.38,5.6,.12,7.82l-1.08-.13c.26-2.22,.91-4.75,1.95-7.58l14.48-36.93c.95-2.62,2.12-4.46,3.54-5.53,1.41-1.07,3.36-1.46,5.83-1.16,2.13,.25,3.75,1.05,4.86,2.39Zm-17.08,21.15l-19.43-2.31-1.47-11.27,24.6,2.92-3.69,10.65Z"/><path class="cls-3" d="M244.06,552.95c.87,.99,1.51,2.12,1.92,3.38,.41,1.26,.77,2.88,1.08,4.85l3.42,24.3c.13,.84,.14,1.71,.04,2.63-.11,.91-.33,1.77-.67,2.59-.42,1.02-1.1,1.81-2.04,2.38-.93,.57-2.04,.86-3.31,.88-1.27,.02-2.62-.27-4.04-.86-1.66-.69-2.8-1.69-3.43-3.01-.63-1.32-1.03-3.34-1.19-6.07l-1.46-22.36,2.23,.92-17.01,14.84c-1.94,1.72-3.66,2.8-5.17,3.26-1.5,.45-3.07,.34-4.7-.34-2.12-.88-3.59-2.07-4.4-3.57-.81-1.5-.9-3.02-.26-4.56,.33-.79,.8-1.55,1.42-2.3,.62-.75,1.27-1.37,1.96-1.87l19.63-14.73c1.61-1.17,3.01-2.06,4.2-2.66,1.19-.6,2.44-.94,3.75-1.03,1.31-.09,2.73,.19,4.24,.81l.22,.09c1.51,.63,2.7,1.44,3.57,2.43Zm8.67-17.31c.64,1.87,.42,4.1-.65,6.69l-7.98,19.21-14.28-5.93,7.98-19.21c1.08-2.59,2.51-4.32,4.3-5.18,1.79-.86,3.85-.81,6.18,.16,2.33,.97,3.81,2.39,4.45,4.25Z"/><path class="cls-3" d="M187.17,523.41c-.11,1.67-.94,3.71-2.47,6.12-2.66,4.04-5.14,7.69-7.45,10.95-2.3,3.26-4.69,6.45-7.14,9.57-3.68,4.68-7.45,5.51-11.28,2.49-3.79-2.98-3.84-6.81-.16-11.49,2.32-2.95,4.79-5.92,7.42-8.93,2.63-3.01,5.66-6.36,9.1-10.07,1.95-2.07,3.73-3.36,5.33-3.87,1.6-.5,3.13-.18,4.59,.97,1.49,1.17,2.17,2.59,2.06,4.27Zm13.85-17.7c.54,1.37,.72,2.78,.52,4.23-.2,1.45-.77,2.78-1.73,3.99-.92,1.16-2.05,2-3.39,2.51-1.34,.51-2.74,.65-4.19,.43-1.45-.22-2.78-.81-4-1.76-1.19-.94-2.05-2.08-2.6-3.43-.54-1.35-.72-2.74-.54-4.16,.18-1.42,.73-2.72,1.64-3.88,.96-1.21,2.11-2.09,3.47-2.62,1.36-.53,2.77-.7,4.22-.5,1.45,.2,2.77,.76,3.96,1.7,1.21,.96,2.09,2.12,2.64,3.49Z"/></g><g><polygon class="cls-2" points="508.46 330.98 467.47 352.32 495.31 383.74 452.91 392.09 478.51 436.76 426.34 424.38 443.16 482.64 392.44 447.79 388.82 502.98 353.42 460.05 332.94 515.19 311.72 464.81 278.05 499.93 272.2 450.24 222.48 482.98 235.1 428.82 188.1 436.24 226.62 385.12 162.12 386.48 207.72 350.85 159.65 330.98 197.64 309.52 152.99 272.52 212.39 269.58 193 229.29 243.8 241.83 229 187.94 275.96 219.08 280.61 169.92 312.08 199.41 332.94 146.26 352.13 210.07 389.8 155.99 386.76 225.31 439.03 185 418.2 245.73 485.26 220.29 455.6 268.51 506.69 274.53 457.12 311.06 508.46 330.98"/><g><path class="cls-3" d="M363.11,367.25l-66.4-1.98c-1.36-.04-2.3,1.35-1.73,2.59,3.03,6.66,13.01,23.46,36.63,23.86,23.96,.41,31.3-15.97,33.21-22.12,.36-1.15-.5-2.32-1.71-2.36Z"/><g><circle class="cls-3" cx="287.67" cy="306.38" r="9.45"/><circle class="cls-3" cx="373.78" cy="306.38" r="9.45"/></g></g></g></g></g></svg>