<?xml version="1.0" encoding="UTF-8"?><svg id="Calque_2" xmlns="http://www.w3.org/2000/svg" viewBox="0 0 636.75 718.82"><defs><style>.cls-1{fill:#ff49a3;}.cls-2{fill:#ffdd14;}.cls-3{fill:#151616;}</style></defs><g id="Layer_1"><g><path class="cls-2" d="M318.37,718.82c-9.31,0-18.49-2.46-26.55-7.11L26.55,558.55c-16.37-9.45-26.55-27.07-26.55-45.98V206.25c0-18.91,10.17-36.53,26.55-45.98L291.83,7.11c8.06-4.65,17.24-7.11,26.55-7.11s18.49,2.46,26.55,7.11l265.28,153.16c16.37,9.45,26.55,27.07,26.55,45.98v306.32c0,18.91-10.17,36.53-26.55,45.98l-265.28,153.16c-8.06,4.65-17.24,7.11-26.55,7.11Z"/><path class="cls-1" d="M601.54,175.28L336.26,22.12c-11.07-6.39-24.7-6.39-35.77,0L35.21,175.28c-11.07,6.39-17.88,18.2-17.88,30.98v306.32c0,12.78,6.82,24.59,17.88,30.98l265.28,153.16c11.07,6.39,24.7,6.39,35.77,0l265.28-153.16c11.07-6.39,17.88-18.2,17.88-30.98V206.25c0-12.78-6.82-24.59-17.88-30.98Z"/><polygon class="cls-2" points="600.06 354.44 410.41 370.3 583.28 449.88 399.7 399.72 534.76 533.8 379.34 423.95 460.65 596.02 352.11 439.71 369.42 629.22 321.08 445.13 272.73 629.22 290.05 439.71 181.5 596.02 262.82 423.95 107.4 533.79 242.46 399.72 58.88 449.87 231.75 370.3 42.1 354.44 231.75 338.57 58.88 259 242.46 309.15 107.4 175.07 262.82 284.92 181.51 112.85 290.05 269.16 272.74 79.65 321.08 263.74 369.42 79.65 352.11 269.16 460.66 112.85 379.34 284.92 534.76 175.08 399.7 309.15 583.28 259 410.41 338.57 600.06 354.44"/><g><path class="cls-3" d="M127.31,337.15h1.31c2.36-2.37,5.11-4.55,8.22-6.54,2.62-1.74,5.73-3.3,9.34-4.67,3.61-1.37,7.66-2.06,12.14-2.06,6.48,0,11.83,1.65,16.07,4.95,4.23,3.3,6.35,7.82,6.35,13.55,0,1.75-.19,3.71-.56,5.89-.37,2.18-.81,4.48-1.31,6.91-.5,2.43-1.03,4.86-1.59,7.29-.56,2.43-1.03,4.64-1.4,6.63l-7.85,36.43h-37.93l10.28-48.77c.25-1.62,.56-3.27,.93-4.95,.37-1.68,.56-3.21,.56-4.58,0-1.87-.47-3.39-1.4-4.58-.93-1.18-2.34-1.78-4.2-1.78-2.24,0-4.39,.81-6.45,2.43-2.05,1.62-3.64,3.05-4.76,4.3l-12.33,57.92h-38.12l26.53-125.56h38.3l-12.15,57.17Z"/><path class="cls-3" d="M226.71,367.98c-.5,2.74-.84,5.36-1.03,7.85-.19,2.49-.28,4.74-.28,6.73,0,1.12,.06,2.37,.19,3.74,.12,1.37,.4,2.65,.84,3.83,.44,1.18,1.06,2.18,1.87,2.99,.81,.81,1.96,1.21,3.46,1.21,1.12,0,2.4-.37,3.83-1.12,1.43-.75,2.86-1.8,4.3-3.18,1.43-1.37,2.8-3.05,4.11-5.04,1.31-1.99,2.34-4.23,3.08-6.73h30.64l-4.86,19.99c-2.49,1.62-5.36,2.99-8.59,4.11-3.24,1.12-6.66,2.03-10.28,2.71-3.62,.68-7.29,1.18-11.02,1.49-3.74,.31-7.29,.47-10.65,.47-6.23,0-12.02-.56-17.38-1.68-5.36-1.12-10.03-3.05-14.01-5.79-3.99-2.74-7.13-6.38-9.44-10.93-2.31-4.55-3.46-10.18-3.46-16.91,0-6.1,.96-12.08,2.9-17.94,1.93-5.85,5.17-11.05,9.72-15.6,4.55-4.55,10.65-8.19,18.31-10.93,7.66-2.74,17.22-4.11,28.68-4.11,12.46,0,21.83,1.93,28.12,5.79,6.29,3.86,9.44,9.9,9.44,18.12,0,3.36-.5,7.01-1.49,10.93-1,3.92-2.49,7.26-4.48,10h-52.5Zm24.85-22.23c0-3.86-.62-6.48-1.87-7.85-1.25-1.37-2.74-2.05-4.48-2.05-1.99,0-3.83,.65-5.51,1.96-1.68,1.31-3.21,3.05-4.58,5.23-1.37,2.18-2.61,4.67-3.74,7.47-1.12,2.8-2.06,5.76-2.8,8.87h21.3c.25-1.49,.5-3.05,.75-4.67,.25-1.37,.47-2.86,.65-4.48,.19-1.62,.28-3.11,.28-4.48Z"/><path class="cls-3" d="M324.43,405.54h-38.12l26.53-125.56h38.3l-26.72,125.56Z"/><path class="cls-3" d="M379.17,405.54h-38.12l26.53-125.56h38.3l-26.72,125.56Z"/><path class="cls-3" d="M456.53,323.14c14.82,0,25.6,2.62,32.32,7.85,7.1,5.48,10.65,14.57,10.65,27.28,0,7.85-1.31,14.92-3.92,21.21-2.61,6.29-6.29,11.49-11.02,15.6-9.47,7.97-23.17,11.96-41.1,11.96-15.32,0-26.28-2.93-32.88-8.78-7.1-6.1-10.65-15.26-10.65-27.47,0-8.1,1.65-15.44,4.95-22.05,3.3-6.6,8.06-12.08,14.29-16.44,9.09-6.1,21.55-9.15,37.37-9.15Zm-12.71,71.19c3.11,0,5.82-1.74,8.13-5.23,2.3-3.49,4.14-7.75,5.51-12.8,1.37-5.04,2.4-10.28,3.08-15.69,.68-5.42,1.03-10.12,1.03-14.11,0-3.49-.35-6.13-1.03-7.94-.69-1.8-2.15-2.71-4.39-2.71-3.36,0-6.26,1.81-8.69,5.42-2.43,3.61-4.39,7.91-5.89,12.89-1.5,4.98-2.59,10.09-3.27,15.32-.69,5.23-1.03,9.47-1.03,12.7,0,8.1,2.18,12.14,6.54,12.14Z"/><path class="cls-3" d="M509.03,393.39c0-2.62,.56-4.95,1.68-7.01,1.12-2.06,2.58-3.77,4.39-5.14,1.8-1.37,3.86-2.4,6.17-3.08,2.3-.68,4.7-1.03,7.19-1.03,4.61,0,8.5,1.12,11.68,3.36,3.18,2.24,4.77,5.67,4.77,10.28,0,2.62-.53,4.95-1.59,7.01-1.06,2.06-2.49,3.77-4.3,5.14-1.81,1.37-3.86,2.4-6.17,3.08-2.31,.68-4.77,1.03-7.38,1.03-4.61,0-8.5-1.12-11.68-3.36-3.18-2.24-4.76-5.67-4.76-10.28Zm20.74-113.41h38.12l-23.92,88h-26.53l12.33-88Z"/></g></g></g></svg>